<?xml version="1.0" encoding="utf-8"?>
<!-- Generator: Adobe Illustrator 16.0.4, SVG Export Plug-In . SVG Version: 6.00 Build 0)  -->
<!DOCTYPE svg PUBLIC "-//W3C//DTD SVG 1.1//EN" "http://www.w3.org/Graphics/SVG/1.1/DTD/svg11.dtd">
<svg version="1.1" id="レイヤー_1" xmlns="http://www.w3.org/2000/svg" xmlns:xlink="http://www.w3.org/1999/xlink" x="0px"
	 y="0px" width="960px" height="180px" viewBox="0 0 960 180" enable-background="new 0 0 960 180" xml:space="preserve">
<g display="none">
	<rect x="50" y="40" display="inline" fill="none" width="170" height="30"/>
	<text transform="matrix(1 0 0 1 50 62.3242)" display="inline" fill="#1D426B" font-family="'Helvetica'" font-size="26">DNA Origami</text>
	<rect x="250" y="40" display="inline" fill="none" width="270" height="30"/>
	<text transform="matrix(1 0 0 1 250 62.3242)" display="inline" fill="#1D426B" font-family="'Helvetica'" font-size="26">Monomer Preparation</text>
	<rect x="560" y="40" display="inline" fill="none" width="120" height="30"/>
	<text transform="matrix(1 0 0 1 560 62.3242)" display="inline" fill="#1D426B" font-family="'Helvetica'" font-size="26">Assembly</text>
	<rect x="760" y="40" display="inline" fill="none" width="160" height="30"/>
	<text transform="matrix(1 0 0 1 760 62.3242)" display="inline" fill="#1D426B" font-family="'Helvetica'" font-size="26">Observation</text>
	<rect x="60" y="80" display="inline" fill="none" width="150" height="60"/>
	<text transform="matrix(1 0 0 1 60 90.3037)" display="inline" fill="#666666" font-family="'Helvetica'" font-size="12">- Mix staples &amp; M13mp18</text>
	<text transform="matrix(1 0 0 1 60 111.3037)" display="inline" fill="#666666" font-family="'Helvetica'" font-size="12">- Annealing</text>
	<text transform="matrix(1 0 0 1 60 132.3037)" display="inline" fill="#666666" font-family="'Helvetica'" font-size="12">- Purification</text>
	<rect x="760" y="80" display="inline" fill="none" width="150" height="60"/>
	<text transform="matrix(1 0 0 1 560 90.3037)" display="inline" fill="#666666" font-family="'Helvetica'" font-size="12">- Apply Input</text>
	<text transform="matrix(1 0 0 1 560 111.3037)" display="inline" fill="#666666" font-family="'Helvetica'" font-size="12">- Incubation</text>
	<rect x="560" y="80" display="inline" fill="none" width="150" height="60"/>
	<text transform="matrix(1 0 0 1 760 90.3037)" display="inline" fill="#666666" font-family="'Helvetica'" font-size="12">- AFM</text>
	<text transform="matrix(1 0 0 1 760 111.3037)" display="inline" fill="#666666" font-family="'Helvetica'" font-size="12">- Electrophoresis</text>
	<text transform="matrix(1 0 0 1 760 132.3037)" display="inline" fill="#666666" font-family="'Helvetica'" font-size="12">- Fluorescence Microscope</text>
	<rect x="260" y="80" display="inline" fill="none" width="150" height="60"/>
	<text transform="matrix(1 0 0 1 260 90.3037)" display="inline" fill="#666666" font-family="'Helvetica'" font-size="12">- Apply several strands</text>
	<text transform="matrix(1 0 0 1 260 111.3037)" display="inline" fill="#666666" font-family="'Helvetica'" font-size="12">- Incubation</text>
	<polyline display="inline" fill="none" stroke="#666666" stroke-miterlimit="10" points="220,40 240,90 220,140 	"/>
	<polyline display="inline" fill="none" stroke="#666666" stroke-miterlimit="10" points="520,40 540,90 520,140 	"/>
	<polyline display="inline" fill="none" stroke="#666666" stroke-miterlimit="10" points="720,40 740,90 720,140 	"/>
</g>
<g id="outline">
	<rect x="50" y="40" fill="none" width="170" height="30"/>
	<g enable-background="new    ">
		<path fill="#1D426B" d="M52.095,43.675h7.454c2.531,0,4.493,0.91,5.888,2.729c1.245,1.642,1.867,3.745,1.867,6.31
			c0,1.98-0.368,3.771-1.103,5.37c-1.294,2.827-3.521,4.24-6.677,4.24h-7.429V43.675z M59.053,60.166
			c0.836,0,1.523-0.089,2.061-0.267c0.96-0.33,1.746-0.965,2.359-1.904c0.488-0.753,0.84-1.718,1.055-2.895
			c0.124-0.702,0.186-1.354,0.186-1.955c0-2.311-0.449-4.104-1.347-5.383c-0.898-1.278-2.344-1.917-4.339-1.917h-4.382v14.32H59.053
			z"/>
		<path fill="#1D426B" d="M70.757,43.675h2.976l9.3,15.068V43.675h2.412v18.649h-2.838l-9.438-15.05v15.05h-2.412V43.675z"/>
		<path fill="#1D426B" d="M94.976,43.675h2.852l6.769,18.649h-2.768l-1.947-5.586h-7.317l-2.022,5.586h-2.59L94.976,43.675z
			 M99.165,54.682l-2.871-8.239l-2.983,8.239H99.165z"/>
		<path fill="#1D426B" d="M128.038,46.341c1.236,1.65,1.854,3.762,1.854,6.335c0,2.784-0.707,5.1-2.12,6.944
			c-1.659,2.167-4.024,3.25-7.097,3.25c-2.869,0-5.125-0.948-6.767-2.844c-1.464-1.828-2.196-4.139-2.196-6.932
			c0-2.522,0.626-4.681,1.879-6.475c1.608-2.302,3.986-3.453,7.135-3.453C124.018,43.167,126.456,44.225,128.038,46.341z
			 M125.81,58.228c0.995-1.596,1.492-3.433,1.492-5.508c0-2.193-0.573-3.96-1.72-5.298c-1.147-1.339-2.715-2.008-4.704-2.008
			c-1.93,0-3.504,0.663-4.723,1.988c-1.219,1.326-1.828,3.28-1.828,5.864c0,2.066,0.522,3.81,1.568,5.229s2.74,2.128,5.084,2.128
			C123.206,60.623,124.815,59.825,125.81,58.228z"/>
		<path fill="#1D426B" d="M132.659,48.728h2.171v2.349c0.178-0.457,0.614-1.014,1.308-1.67c0.694-0.655,1.494-0.983,2.399-0.983
			c0.042,0,0.114,0.004,0.216,0.013s0.275,0.025,0.521,0.051v2.412c-0.135-0.025-0.26-0.042-0.375-0.051s-0.239-0.013-0.375-0.013
			c-1.151,0-2.036,0.37-2.653,1.11c-0.618,0.741-0.927,1.594-0.927,2.559v7.82h-2.285V48.728z"/>
		<path fill="#1D426B" d="M141.254,43.675h2.323v2.59h-2.323V43.675z M141.254,48.791h2.323v13.533h-2.323V48.791z"/>
		<path fill="#1D426B" d="M154.589,49.273c0.43,0.296,0.868,0.728,1.315,1.295v-1.714h2.107V61.22c0,1.727-0.253,3.089-0.759,4.088
			c-0.945,1.845-2.729,2.768-5.352,2.768c-1.459,0-2.687-0.328-3.682-0.983c-0.995-0.656-1.552-1.683-1.67-3.079h2.323
			c0.109,0.609,0.328,1.079,0.657,1.409c0.513,0.508,1.321,0.762,2.424,0.762c1.743,0,2.883-0.618,3.422-1.854
			c0.32-0.728,0.467-2.027,0.442-3.897c-0.455,0.694-1.003,1.21-1.644,1.549c-0.641,0.339-1.488,0.508-2.542,0.508
			c-1.467,0-2.75-0.522-3.851-1.567c-1.1-1.046-1.65-2.774-1.65-5.187c0-2.276,0.554-4.054,1.663-5.332
			c1.108-1.278,2.447-1.917,4.015-1.917C152.869,48.486,153.796,48.749,154.589,49.273z M154.869,51.724
			c-0.69-0.812-1.57-1.219-2.64-1.219c-1.6,0-2.695,0.753-3.284,2.26c-0.312,0.804-0.467,1.857-0.467,3.161
			c0,1.532,0.31,2.697,0.928,3.498c0.619,0.799,1.451,1.199,2.495,1.199c1.633,0,2.783-0.74,3.448-2.222
			c0.371-0.838,0.556-1.815,0.556-2.933C155.904,53.784,155.559,52.536,154.869,51.724z"/>
		<path fill="#1D426B" d="M168.777,54.096c0.525-0.067,0.876-0.287,1.054-0.659c0.102-0.204,0.152-0.497,0.152-0.879
			c0-0.782-0.277-1.349-0.83-1.701s-1.345-0.529-2.375-0.529c-1.191,0-2.036,0.323-2.534,0.97c-0.279,0.357-0.46,0.889-0.545,1.595
			h-2.133c0.042-1.681,0.585-2.85,1.629-3.508c1.044-0.657,2.255-0.986,3.633-0.986c1.598,0,2.896,0.305,3.893,0.914
			c0.989,0.609,1.483,1.558,1.483,2.844v7.834c0,0.236,0.049,0.427,0.146,0.57s0.303,0.216,0.616,0.216
			c0.102,0,0.216-0.006,0.343-0.02c0.127-0.012,0.262-0.031,0.406-0.057v1.688c-0.355,0.102-0.626,0.165-0.812,0.19
			s-0.44,0.038-0.762,0.038c-0.787,0-1.358-0.279-1.714-0.838c-0.186-0.296-0.317-0.715-0.394-1.257
			c-0.465,0.609-1.134,1.139-2.006,1.587s-1.833,0.673-2.882,0.673c-1.261,0-2.292-0.383-3.091-1.147s-1.2-1.723-1.2-2.872
			c0-1.26,0.394-2.235,1.181-2.929s1.82-1.12,3.098-1.281L168.777,54.096z M163.966,60.269c0.482,0.381,1.054,0.57,1.714,0.57
			c0.804,0,1.583-0.186,2.336-0.558c1.27-0.617,1.904-1.627,1.904-3.029v-1.838c-0.279,0.179-0.638,0.327-1.077,0.445
			c-0.439,0.119-0.87,0.204-1.292,0.255l-1.381,0.178c-0.828,0.109-1.45,0.282-1.867,0.52c-0.707,0.396-1.06,1.03-1.06,1.899
			C163.242,59.369,163.483,59.889,163.966,60.269z"/>
		<path fill="#1D426B" d="M175.95,48.728h2.26v1.93c0.542-0.669,1.033-1.155,1.473-1.46c0.753-0.517,1.608-0.774,2.564-0.774
			c1.083,0,1.955,0.267,2.615,0.8c0.373,0.305,0.711,0.753,1.016,1.346c0.508-0.728,1.104-1.268,1.79-1.619
			c0.686-0.351,1.456-0.526,2.311-0.526c1.828,0,3.072,0.66,3.732,1.98c0.355,0.711,0.533,1.667,0.533,2.869v9.052h-2.374v-9.445
			c0-0.905-0.227-1.527-0.679-1.866s-1.005-0.508-1.657-0.508c-0.897,0-1.669,0.301-2.317,0.901s-0.971,1.604-0.971,3.009v7.909
			h-2.323V53.45c0-0.923-0.11-1.596-0.33-2.019c-0.347-0.635-0.995-0.952-1.942-0.952c-0.863,0-1.648,0.334-2.355,1.003
			s-1.06,1.879-1.06,3.631v7.211h-2.285V48.728z"/>
		<path fill="#1D426B" d="M197.608,43.675h2.323v2.59h-2.323V43.675z M197.608,48.791h2.323v13.533h-2.323V48.791z"/>
	</g>
	<rect x="250" y="40" fill="none" width="270" height="30"/>
	<g enable-background="new    ">
		<path fill="#1D426B" d="M251.917,43.675h3.619l5.363,15.768l5.325-15.768h3.594v18.649h-2.412V51.317
			c0-0.381,0.008-1.012,0.025-1.892s0.025-1.824,0.025-2.831l-5.325,15.729h-2.503l-5.375-15.729v0.571
			c0,0.457,0.013,1.153,0.038,2.088c0.025,0.936,0.038,1.623,0.038,2.063v11.007h-2.412V43.675z"/>
		<path fill="#1D426B" d="M283.186,50.085c1.202,1.167,1.803,2.883,1.803,5.149c0,2.19-0.53,4-1.588,5.429
			c-1.059,1.429-2.702,2.144-4.929,2.144c-1.857,0-3.332-0.632-4.425-1.896c-1.093-1.264-1.639-2.962-1.639-5.093
			c0-2.283,0.576-4.101,1.727-5.454c1.151-1.353,2.698-2.029,4.639-2.029C280.513,48.334,281.984,48.918,283.186,50.085z
			 M281.767,59.121c0.557-1.146,0.835-2.42,0.835-3.823c0-1.268-0.201-2.3-0.603-3.094c-0.636-1.251-1.732-1.877-3.289-1.877
			c-1.381,0-2.385,0.532-3.013,1.598s-0.941,2.351-0.941,3.854c0,1.446,0.314,2.65,0.941,3.614s1.624,1.445,2.988,1.445
			C280.183,60.839,281.21,60.267,281.767,59.121z"/>
		<path fill="#1D426B" d="M287.794,48.728h2.171v1.93c0.643-0.796,1.325-1.367,2.044-1.714s1.519-0.521,2.399-0.521
			c1.93,0,3.233,0.673,3.91,2.019c0.373,0.736,0.559,1.79,0.559,3.161v8.722h-2.323v-8.569c0-0.829-0.123-1.498-0.368-2.006
			c-0.406-0.847-1.143-1.27-2.209-1.27c-0.542,0-0.986,0.055-1.333,0.165c-0.626,0.187-1.176,0.559-1.65,1.117
			c-0.381,0.448-0.628,0.912-0.743,1.391c-0.114,0.478-0.171,1.161-0.171,2.05v7.122h-2.285V48.728z"/>
		<path fill="#1D426B" d="M312.105,50.085c1.202,1.167,1.803,2.883,1.803,5.149c0,2.19-0.53,4-1.588,5.429
			c-1.059,1.429-2.702,2.144-4.929,2.144c-1.857,0-3.332-0.632-4.425-1.896c-1.093-1.264-1.639-2.962-1.639-5.093
			c0-2.283,0.576-4.101,1.727-5.454c1.151-1.353,2.698-2.029,4.639-2.029C309.433,48.334,310.904,48.918,312.105,50.085z
			 M310.687,59.121c0.557-1.146,0.835-2.42,0.835-3.823c0-1.268-0.201-2.3-0.603-3.094c-0.636-1.251-1.732-1.877-3.289-1.877
			c-1.381,0-2.385,0.532-3.013,1.598s-0.941,2.351-0.941,3.854c0,1.446,0.314,2.65,0.941,3.614s1.624,1.445,2.988,1.445
			C309.103,60.839,310.13,60.267,310.687,59.121z"/>
		<path fill="#1D426B" d="M316.714,48.728h2.26v1.93c0.542-0.669,1.033-1.155,1.473-1.46c0.753-0.517,1.608-0.774,2.564-0.774
			c1.083,0,1.955,0.267,2.615,0.8c0.373,0.305,0.711,0.753,1.016,1.346c0.508-0.728,1.104-1.268,1.79-1.619
			c0.686-0.351,1.456-0.526,2.311-0.526c1.828,0,3.072,0.66,3.732,1.98c0.355,0.711,0.533,1.667,0.533,2.869v9.052h-2.374v-9.445
			c0-0.905-0.227-1.527-0.679-1.866s-1.005-0.508-1.657-0.508c-0.897,0-1.669,0.301-2.317,0.901s-0.971,1.604-0.971,3.009v7.909
			h-2.323V53.45c0-0.923-0.11-1.596-0.33-2.019c-0.347-0.635-0.995-0.952-1.942-0.952c-0.863,0-1.648,0.334-2.355,1.003
			s-1.06,1.879-1.06,3.631v7.211h-2.285V48.728z"/>
		<path fill="#1D426B" d="M346.771,49.102c0.9,0.453,1.585,1.039,2.057,1.759c0.454,0.686,0.757,1.485,0.908,2.399
			c0.135,0.626,0.202,1.625,0.202,2.996h-9.89c0.042,1.384,0.365,2.493,0.97,3.329c0.604,0.836,1.541,1.254,2.809,1.254
			c1.184,0,2.129-0.396,2.834-1.186c0.395-0.46,0.674-0.991,0.839-1.595h2.247c-0.059,0.499-0.256,1.056-0.59,1.67
			c-0.334,0.613-0.708,1.114-1.119,1.504c-0.689,0.677-1.542,1.134-2.558,1.371c-0.546,0.136-1.164,0.203-1.853,0.203
			c-1.682,0-3.107-0.615-4.277-1.848c-1.169-1.23-1.753-2.955-1.753-5.173c0-2.184,0.589-3.957,1.767-5.319
			c1.177-1.362,2.717-2.044,4.618-2.044C344.941,48.423,345.87,48.649,346.771,49.102z M347.589,54.44
			c-0.092-0.99-0.307-1.781-0.642-2.374c-0.621-1.101-1.658-1.65-3.109-1.65c-1.041,0-1.914,0.379-2.619,1.137
			c-0.705,0.757-1.078,1.72-1.12,2.888H347.589z"/>
		<path fill="#1D426B" d="M352.896,48.728h2.171v2.349c0.178-0.457,0.614-1.014,1.308-1.67c0.694-0.655,1.494-0.983,2.399-0.983
			c0.042,0,0.114,0.004,0.216,0.013s0.275,0.025,0.521,0.051v2.412c-0.135-0.025-0.26-0.042-0.375-0.051s-0.239-0.013-0.375-0.013
			c-1.151,0-2.036,0.37-2.653,1.11c-0.618,0.741-0.927,1.594-0.927,2.559v7.82h-2.285V48.728z"/>
		<path fill="#1D426B" d="M369.26,43.675h8.345c1.65,0,2.982,0.468,3.997,1.403c1.014,0.935,1.521,2.249,1.521,3.941
			c0,1.456-0.453,2.723-1.358,3.803c-0.905,1.078-2.291,1.618-4.156,1.618h-5.823v7.884h-2.526V43.675z M379.059,46.239
			c-0.555-0.263-1.315-0.394-2.281-0.394h-4.991v6.462h4.991c1.126,0,2.04-0.241,2.741-0.724c0.702-0.482,1.053-1.333,1.053-2.552
			C380.571,47.661,380.067,46.73,379.059,46.239z"/>
		<path fill="#1D426B" d="M386.119,48.728h2.171v2.349c0.178-0.457,0.614-1.014,1.308-1.67c0.694-0.655,1.494-0.983,2.399-0.983
			c0.042,0,0.114,0.004,0.216,0.013s0.275,0.025,0.521,0.051v2.412c-0.135-0.025-0.26-0.042-0.375-0.051s-0.239-0.013-0.375-0.013
			c-1.151,0-2.036,0.37-2.653,1.11c-0.618,0.741-0.927,1.594-0.927,2.559v7.82h-2.285V48.728z"/>
		<path fill="#1D426B" d="M403.112,49.102c0.9,0.453,1.585,1.039,2.057,1.759c0.454,0.686,0.757,1.485,0.908,2.399
			c0.135,0.626,0.202,1.625,0.202,2.996h-9.89c0.042,1.384,0.365,2.493,0.97,3.329c0.604,0.836,1.541,1.254,2.809,1.254
			c1.184,0,2.129-0.396,2.834-1.186c0.395-0.46,0.674-0.991,0.839-1.595h2.247c-0.059,0.499-0.256,1.056-0.59,1.67
			c-0.334,0.613-0.708,1.114-1.119,1.504c-0.689,0.677-1.542,1.134-2.558,1.371c-0.546,0.136-1.164,0.203-1.853,0.203
			c-1.682,0-3.107-0.615-4.277-1.848c-1.169-1.23-1.753-2.955-1.753-5.173c0-2.184,0.589-3.957,1.767-5.319
			c1.177-1.362,2.717-2.044,4.618-2.044C401.283,48.423,402.212,48.649,403.112,49.102z M403.931,54.44
			c-0.092-0.99-0.307-1.781-0.642-2.374c-0.621-1.101-1.658-1.65-3.109-1.65c-1.041,0-1.914,0.379-2.619,1.137
			c-0.705,0.757-1.078,1.72-1.12,2.888H403.931z"/>
		<path fill="#1D426B" d="M408.983,48.791h2.234v1.803c0.458-0.618,0.959-1.096,1.502-1.435c0.772-0.508,1.68-0.762,2.724-0.762
			c1.544,0,2.855,0.591,3.933,1.771c1.078,1.182,1.617,2.867,1.617,5.06c0,2.962-0.777,5.078-2.333,6.348
			c-0.985,0.804-2.133,1.206-3.441,1.206c-1.028,0-1.891-0.225-2.587-0.673c-0.408-0.254-0.862-0.689-1.364-1.308v6.944h-2.285
			V48.791z M417.581,59.449c0.709-0.894,1.063-2.229,1.063-4.006c0-1.083-0.157-2.015-0.471-2.793
			c-0.595-1.498-1.682-2.247-3.261-2.247c-1.588,0-2.675,0.791-3.261,2.374c-0.314,0.847-0.471,1.921-0.471,3.225
			c0,1.05,0.157,1.942,0.471,2.679c0.594,1.405,1.682,2.107,3.261,2.107C415.982,60.788,416.872,60.342,417.581,59.449z"/>
		<path fill="#1D426B" d="M430.921,54.096c0.525-0.067,0.876-0.287,1.054-0.659c0.102-0.204,0.152-0.497,0.152-0.879
			c0-0.782-0.277-1.349-0.83-1.701s-1.345-0.529-2.375-0.529c-1.191,0-2.036,0.323-2.534,0.97c-0.279,0.357-0.46,0.889-0.545,1.595
			h-2.133c0.042-1.681,0.585-2.85,1.629-3.508c1.044-0.657,2.255-0.986,3.633-0.986c1.598,0,2.896,0.305,3.893,0.914
			c0.989,0.609,1.483,1.558,1.483,2.844v7.834c0,0.236,0.049,0.427,0.146,0.57s0.303,0.216,0.616,0.216
			c0.102,0,0.216-0.006,0.343-0.02c0.127-0.012,0.262-0.031,0.406-0.057v1.688c-0.355,0.102-0.626,0.165-0.812,0.19
			s-0.44,0.038-0.762,0.038c-0.787,0-1.358-0.279-1.714-0.838c-0.186-0.296-0.317-0.715-0.394-1.257
			c-0.465,0.609-1.134,1.139-2.006,1.587s-1.833,0.673-2.882,0.673c-1.261,0-2.292-0.383-3.091-1.147s-1.2-1.723-1.2-2.872
			c0-1.26,0.394-2.235,1.181-2.929s1.82-1.12,3.098-1.281L430.921,54.096z M426.109,60.269c0.482,0.381,1.054,0.57,1.714,0.57
			c0.804,0,1.583-0.186,2.336-0.558c1.27-0.617,1.904-1.627,1.904-3.029v-1.838c-0.279,0.179-0.638,0.327-1.077,0.445
			c-0.439,0.119-0.87,0.204-1.292,0.255l-1.381,0.178c-0.828,0.109-1.45,0.282-1.867,0.52c-0.707,0.396-1.06,1.03-1.06,1.899
			C425.386,59.369,425.627,59.889,426.109,60.269z"/>
		<path fill="#1D426B" d="M438.157,48.728h2.171v2.349c0.178-0.457,0.614-1.014,1.308-1.67c0.694-0.655,1.494-0.983,2.399-0.983
			c0.042,0,0.114,0.004,0.216,0.013s0.275,0.025,0.521,0.051v2.412c-0.135-0.025-0.26-0.042-0.375-0.051s-0.239-0.013-0.375-0.013
			c-1.151,0-2.036,0.37-2.653,1.11c-0.618,0.741-0.927,1.594-0.927,2.559v7.82h-2.285V48.728z"/>
		<path fill="#1D426B" d="M454.039,54.096c0.525-0.067,0.876-0.287,1.054-0.659c0.102-0.204,0.152-0.497,0.152-0.879
			c0-0.782-0.277-1.349-0.83-1.701s-1.345-0.529-2.375-0.529c-1.191,0-2.036,0.323-2.534,0.97c-0.279,0.357-0.46,0.889-0.545,1.595
			h-2.133c0.042-1.681,0.585-2.85,1.629-3.508c1.044-0.657,2.255-0.986,3.633-0.986c1.598,0,2.896,0.305,3.893,0.914
			c0.989,0.609,1.483,1.558,1.483,2.844v7.834c0,0.236,0.049,0.427,0.146,0.57s0.303,0.216,0.616,0.216
			c0.102,0,0.216-0.006,0.343-0.02c0.127-0.012,0.262-0.031,0.406-0.057v1.688c-0.355,0.102-0.626,0.165-0.812,0.19
			s-0.44,0.038-0.762,0.038c-0.787,0-1.358-0.279-1.714-0.838c-0.186-0.296-0.317-0.715-0.394-1.257
			c-0.465,0.609-1.134,1.139-2.006,1.587s-1.833,0.673-2.882,0.673c-1.261,0-2.292-0.383-3.091-1.147s-1.2-1.723-1.2-2.872
			c0-1.26,0.394-2.235,1.181-2.929s1.82-1.12,3.098-1.281L454.039,54.096z M449.228,60.269c0.482,0.381,1.054,0.57,1.714,0.57
			c0.804,0,1.583-0.186,2.336-0.558c1.27-0.617,1.904-1.627,1.904-3.029v-1.838c-0.279,0.179-0.638,0.327-1.077,0.445
			c-0.439,0.119-0.87,0.204-1.292,0.255l-1.381,0.178c-0.828,0.109-1.45,0.282-1.867,0.52c-0.707,0.396-1.06,1.03-1.06,1.899
			C448.504,59.369,448.745,59.889,449.228,60.269z"/>
		<path fill="#1D426B" d="M461.669,44.932h2.311v3.796h2.171v1.866h-2.171v8.874c0,0.474,0.161,0.791,0.482,0.952
			c0.178,0.093,0.474,0.14,0.889,0.14c0.11,0,0.229-0.003,0.355-0.009c0.127-0.005,0.275-0.02,0.444-0.042v1.815
			c-0.262,0.076-0.535,0.131-0.819,0.165s-0.59,0.051-0.92,0.051c-1.066,0-1.79-0.272-2.171-0.819
			c-0.381-0.545-0.571-1.254-0.571-2.126v-9.001h-1.841v-1.866h1.841V44.932z"/>
		<path fill="#1D426B" d="M468.436,43.675h2.323v2.59h-2.323V43.675z M468.436,48.791h2.323v13.533h-2.323V48.791z"/>
		<path fill="#1D426B" d="M484.063,50.085c1.202,1.167,1.803,2.883,1.803,5.149c0,2.19-0.53,4-1.589,5.429s-2.701,2.144-4.929,2.144
			c-1.857,0-3.332-0.632-4.425-1.896c-1.093-1.264-1.639-2.962-1.639-5.093c0-2.283,0.576-4.101,1.727-5.454
			c1.151-1.353,2.698-2.029,4.639-2.029C481.391,48.334,482.861,48.918,484.063,50.085z M482.645,59.121
			c0.557-1.146,0.835-2.42,0.835-3.823c0-1.268-0.201-2.3-0.603-3.094c-0.637-1.251-1.732-1.877-3.289-1.877
			c-1.381,0-2.385,0.532-3.013,1.598s-0.941,2.351-0.941,3.854c0,1.446,0.314,2.65,0.941,3.614s1.624,1.445,2.988,1.445
			C481.061,60.839,482.088,60.267,482.645,59.121z"/>
		<path fill="#1D426B" d="M488.672,48.728h2.171v1.93c0.644-0.796,1.325-1.367,2.044-1.714s1.52-0.521,2.399-0.521
			c1.93,0,3.233,0.673,3.91,2.019c0.372,0.736,0.559,1.79,0.559,3.161v8.722h-2.323v-8.569c0-0.829-0.123-1.498-0.368-2.006
			c-0.406-0.847-1.143-1.27-2.209-1.27c-0.542,0-0.985,0.055-1.333,0.165c-0.627,0.187-1.176,0.559-1.65,1.117
			c-0.381,0.448-0.629,0.912-0.742,1.391c-0.115,0.478-0.172,1.161-0.172,2.05v7.122h-2.285V48.728z"/>
	</g>
	<rect x="560" y="40" fill="none" width="120" height="30"/>
	<g enable-background="new    ">
		<path fill="#1D426B" d="M567.423,43.675h2.853l6.768,18.649h-2.768l-1.946-5.586h-7.317l-2.021,5.586h-2.59L567.423,43.675z
			 M571.611,54.682l-2.871-8.239l-2.982,8.239H571.611z"/>
		<path fill="#1D426B" d="M580.376,58.059c0.069,0.762,0.263,1.346,0.583,1.752c0.588,0.736,1.607,1.104,3.059,1.104
			c0.863,0,1.623-0.185,2.279-0.552c0.657-0.369,0.985-0.938,0.985-1.708c0-0.584-0.263-1.028-0.787-1.333
			c-0.335-0.187-0.997-0.402-1.987-0.647l-1.845-0.457c-1.179-0.288-2.047-0.609-2.606-0.965c-0.997-0.618-1.496-1.473-1.496-2.564
			c0-1.286,0.47-2.327,1.408-3.123c0.939-0.796,2.203-1.193,3.789-1.193c2.076,0,3.572,0.601,4.49,1.803
			c0.574,0.762,0.854,1.583,0.837,2.463h-2.158c-0.044-0.514-0.229-0.98-0.559-1.401c-0.538-0.598-1.469-0.896-2.794-0.896
			c-0.885,0-1.553,0.164-2.008,0.493s-0.683,0.764-0.683,1.303c0,0.591,0.299,1.062,0.896,1.417
			c0.345,0.211,0.854,0.396,1.526,0.558l1.539,0.368c1.673,0.397,2.794,0.783,3.363,1.155c0.889,0.584,1.333,1.502,1.333,2.755
			c0,1.21-0.465,2.256-1.395,3.136s-2.346,1.32-4.248,1.32c-2.048,0-3.498-0.459-4.351-1.378c-0.854-0.918-1.309-2.054-1.369-3.408
			H580.376z"/>
		<path fill="#1D426B" d="M593.376,58.059c0.069,0.762,0.263,1.346,0.583,1.752c0.588,0.736,1.607,1.104,3.059,1.104
			c0.863,0,1.623-0.185,2.279-0.552c0.657-0.369,0.985-0.938,0.985-1.708c0-0.584-0.263-1.028-0.787-1.333
			c-0.335-0.187-0.997-0.402-1.987-0.647l-1.845-0.457c-1.179-0.288-2.047-0.609-2.606-0.965c-0.997-0.618-1.496-1.473-1.496-2.564
			c0-1.286,0.47-2.327,1.408-3.123c0.939-0.796,2.203-1.193,3.789-1.193c2.076,0,3.572,0.601,4.49,1.803
			c0.574,0.762,0.854,1.583,0.837,2.463h-2.158c-0.044-0.514-0.229-0.98-0.559-1.401c-0.538-0.598-1.469-0.896-2.794-0.896
			c-0.885,0-1.553,0.164-2.008,0.493s-0.683,0.764-0.683,1.303c0,0.591,0.299,1.062,0.896,1.417
			c0.345,0.211,0.854,0.396,1.526,0.558l1.539,0.368c1.673,0.397,2.794,0.783,3.363,1.155c0.889,0.584,1.333,1.502,1.333,2.755
			c0,1.21-0.465,2.256-1.395,3.136s-2.346,1.32-4.248,1.32c-2.048,0-3.498-0.459-4.351-1.378c-0.854-0.918-1.309-2.054-1.369-3.408
			H593.376z"/>
		<path fill="#1D426B" d="M613.416,49.102c0.9,0.453,1.586,1.039,2.057,1.759c0.454,0.686,0.757,1.485,0.908,2.399
			c0.135,0.626,0.202,1.625,0.202,2.996h-9.89c0.042,1.384,0.365,2.493,0.971,3.329c0.604,0.836,1.54,1.254,2.809,1.254
			c1.184,0,2.129-0.396,2.834-1.186c0.395-0.46,0.674-0.991,0.839-1.595h2.247c-0.059,0.499-0.256,1.056-0.59,1.67
			c-0.335,0.613-0.708,1.114-1.119,1.504c-0.689,0.677-1.541,1.134-2.558,1.371c-0.546,0.136-1.163,0.203-1.853,0.203
			c-1.682,0-3.107-0.615-4.277-1.848c-1.168-1.23-1.753-2.955-1.753-5.173c0-2.184,0.589-3.957,1.767-5.319s2.717-2.044,4.617-2.044
			C611.586,48.423,612.516,48.649,613.416,49.102z M614.234,54.44c-0.092-0.99-0.307-1.781-0.643-2.374
			c-0.621-1.101-1.657-1.65-3.109-1.65c-1.04,0-1.913,0.379-2.618,1.137c-0.704,0.757-1.078,1.72-1.12,2.888H614.234z"/>
		<path fill="#1D426B" d="M619.478,48.728h2.26v1.93c0.542-0.669,1.032-1.155,1.473-1.46c0.753-0.517,1.608-0.774,2.564-0.774
			c1.083,0,1.955,0.267,2.615,0.8c0.372,0.305,0.711,0.753,1.016,1.346c0.508-0.728,1.104-1.268,1.79-1.619
			c0.686-0.351,1.455-0.526,2.311-0.526c1.828,0,3.072,0.66,3.732,1.98c0.355,0.711,0.533,1.667,0.533,2.869v9.052h-2.374v-9.445
			c0-0.905-0.227-1.527-0.679-1.866c-0.453-0.339-1.006-0.508-1.657-0.508c-0.897,0-1.669,0.301-2.317,0.901
			c-0.646,0.601-0.971,1.604-0.971,3.009v7.909h-2.323V53.45c0-0.923-0.11-1.596-0.33-2.019c-0.347-0.635-0.995-0.952-1.942-0.952
			c-0.863,0-1.648,0.334-2.355,1.003c-0.706,0.669-1.06,1.879-1.06,3.631v7.211h-2.285V48.728z"/>
		<path fill="#1D426B" d="M640.945,43.611h2.222v6.767c0.501-0.651,1.101-1.149,1.797-1.491c0.696-0.344,1.453-0.515,2.269-0.515
			c1.699,0,3.078,0.582,4.136,1.745c1.058,1.164,1.587,2.88,1.587,5.148c0,2.149-0.522,3.936-1.568,5.357
			c-1.045,1.422-2.493,2.133-4.346,2.133c-1.036,0-1.911-0.25-2.625-0.749c-0.425-0.296-0.879-0.771-1.363-1.422v1.739h-2.107
			V43.611z M649.683,59.265c0.616-0.981,0.924-2.276,0.924-3.885c0-1.431-0.308-2.615-0.924-3.555
			c-0.615-0.939-1.522-1.409-2.72-1.409c-1.044,0-1.959,0.385-2.744,1.155c-0.786,0.771-1.179,2.04-1.179,3.809
			c0,1.278,0.161,2.314,0.483,3.11c0.604,1.498,1.729,2.247,3.376,2.247C648.139,60.737,649.067,60.246,649.683,59.265z"/>
		<path fill="#1D426B" d="M655.659,43.675h2.285v18.649h-2.285V43.675z"/>
		<path fill="#1D426B" d="M669.871,48.728h2.527c-0.322,0.872-1.037,2.862-2.146,5.97c-0.829,2.337-1.523,4.242-2.082,5.715
			c-1.318,3.468-2.248,5.582-2.79,6.344c-0.541,0.761-1.472,1.142-2.79,1.142c-0.322,0-0.568-0.013-0.742-0.038
			s-0.387-0.072-0.641-0.14v-2.082c0.396,0.11,0.685,0.178,0.861,0.203c0.178,0.025,0.334,0.038,0.47,0.038
			c0.422,0,0.732-0.07,0.931-0.209c0.199-0.14,0.366-0.311,0.502-0.514c0.041-0.067,0.193-0.414,0.455-1.038
			c0.262-0.626,0.452-1.09,0.57-1.394l-5.027-13.997h2.59l3.645,11.075L669.871,48.728z"/>
	</g>
	<rect x="760" y="40" fill="none" width="160" height="30"/>
	<g enable-background="new    ">
		<path fill="#1D426B" d="M777.342,46.341c1.236,1.65,1.854,3.762,1.854,6.335c0,2.784-0.707,5.1-2.12,6.944
			c-1.659,2.167-4.024,3.25-7.097,3.25c-2.869,0-5.125-0.948-6.767-2.844c-1.464-1.828-2.196-4.139-2.196-6.932
			c0-2.522,0.627-4.681,1.879-6.475c1.607-2.302,3.986-3.453,7.135-3.453C773.322,43.167,775.76,44.225,777.342,46.341z
			 M775.113,58.228c0.995-1.596,1.492-3.433,1.492-5.508c0-2.193-0.573-3.96-1.721-5.298c-1.146-1.339-2.715-2.008-4.703-2.008
			c-1.93,0-3.504,0.663-4.723,1.988c-1.219,1.326-1.828,3.28-1.828,5.864c0,2.066,0.522,3.81,1.568,5.229
			c1.045,1.419,2.74,2.128,5.084,2.128C772.51,60.623,774.119,59.825,775.113,58.228z"/>
		<path fill="#1D426B" d="M781.709,43.611h2.222v6.767c0.501-0.651,1.101-1.149,1.797-1.491c0.696-0.344,1.453-0.515,2.269-0.515
			c1.699,0,3.078,0.582,4.136,1.745c1.058,1.164,1.587,2.88,1.587,5.148c0,2.149-0.522,3.936-1.568,5.357
			c-1.045,1.422-2.493,2.133-4.346,2.133c-1.036,0-1.911-0.25-2.625-0.749c-0.425-0.296-0.879-0.771-1.363-1.422v1.739h-2.107
			V43.611z M790.446,59.265c0.616-0.981,0.924-2.276,0.924-3.885c0-1.431-0.308-2.615-0.924-3.555
			c-0.615-0.939-1.522-1.409-2.72-1.409c-1.044,0-1.959,0.385-2.744,1.155c-0.786,0.771-1.179,2.04-1.179,3.809
			c0,1.278,0.161,2.314,0.483,3.11c0.604,1.498,1.729,2.247,3.376,2.247C788.902,60.737,789.831,60.246,790.446,59.265z"/>
		<path fill="#1D426B" d="M797.718,58.059c0.069,0.762,0.263,1.346,0.583,1.752c0.588,0.736,1.607,1.104,3.059,1.104
			c0.863,0,1.623-0.185,2.279-0.552c0.657-0.369,0.985-0.938,0.985-1.708c0-0.584-0.263-1.028-0.787-1.333
			c-0.335-0.187-0.997-0.402-1.987-0.647l-1.845-0.457c-1.179-0.288-2.047-0.609-2.606-0.965c-0.997-0.618-1.496-1.473-1.496-2.564
			c0-1.286,0.47-2.327,1.408-3.123c0.939-0.796,2.203-1.193,3.789-1.193c2.076,0,3.572,0.601,4.49,1.803
			c0.574,0.762,0.854,1.583,0.837,2.463h-2.158c-0.044-0.514-0.229-0.98-0.559-1.401c-0.538-0.598-1.469-0.896-2.794-0.896
			c-0.885,0-1.553,0.164-2.008,0.493s-0.683,0.764-0.683,1.303c0,0.591,0.299,1.062,0.896,1.417
			c0.345,0.211,0.854,0.396,1.526,0.558l1.539,0.368c1.673,0.397,2.794,0.783,3.363,1.155c0.889,0.584,1.333,1.502,1.333,2.755
			c0,1.21-0.465,2.256-1.395,3.136s-2.346,1.32-4.248,1.32c-2.048,0-3.498-0.459-4.351-1.378c-0.854-0.918-1.309-2.054-1.369-3.408
			H797.718z"/>
		<path fill="#1D426B" d="M817.758,49.102c0.9,0.453,1.586,1.039,2.057,1.759c0.454,0.686,0.757,1.485,0.908,2.399
			c0.135,0.626,0.202,1.625,0.202,2.996h-9.89c0.042,1.384,0.365,2.493,0.971,3.329c0.604,0.836,1.54,1.254,2.809,1.254
			c1.184,0,2.129-0.396,2.834-1.186c0.395-0.46,0.674-0.991,0.839-1.595h2.247c-0.059,0.499-0.256,1.056-0.59,1.67
			c-0.335,0.613-0.708,1.114-1.119,1.504c-0.689,0.677-1.541,1.134-2.558,1.371c-0.546,0.136-1.163,0.203-1.853,0.203
			c-1.682,0-3.107-0.615-4.277-1.848c-1.168-1.23-1.753-2.955-1.753-5.173c0-2.184,0.589-3.957,1.767-5.319s2.717-2.044,4.617-2.044
			C815.928,48.423,816.857,48.649,817.758,49.102z M818.576,54.44c-0.092-0.99-0.307-1.781-0.643-2.374
			c-0.621-1.101-1.657-1.65-3.109-1.65c-1.04,0-1.913,0.379-2.618,1.137c-0.704,0.757-1.078,1.72-1.12,2.888H818.576z"/>
		<path fill="#1D426B" d="M823.883,48.728h2.171v2.349c0.178-0.457,0.614-1.014,1.308-1.67c0.693-0.655,1.494-0.983,2.399-0.983
			c0.042,0,0.114,0.004,0.216,0.013s0.275,0.025,0.521,0.051v2.412c-0.136-0.025-0.261-0.042-0.374-0.051
			c-0.115-0.009-0.24-0.013-0.375-0.013c-1.15,0-2.035,0.37-2.653,1.11c-0.618,0.741-0.927,1.594-0.927,2.559v7.82h-2.285V48.728z"
			/>
		<path fill="#1D426B" d="M833.602,48.728l3.631,11.07l3.783-11.07h2.5l-5.118,13.597h-2.435l-5.016-13.597H833.602z"/>
		<path fill="#1D426B" d="M852.765,54.096c0.524-0.067,0.876-0.287,1.054-0.659c0.102-0.204,0.152-0.497,0.152-0.879
			c0-0.782-0.277-1.349-0.83-1.701s-1.346-0.529-2.375-0.529c-1.191,0-2.036,0.323-2.534,0.97c-0.278,0.357-0.46,0.889-0.545,1.595
			h-2.133c0.042-1.681,0.585-2.85,1.63-3.508c1.043-0.657,2.254-0.986,3.633-0.986c1.598,0,2.895,0.305,3.893,0.914
			c0.988,0.609,1.483,1.558,1.483,2.844v7.834c0,0.236,0.049,0.427,0.146,0.57c0.098,0.144,0.303,0.216,0.616,0.216
			c0.102,0,0.216-0.006,0.343-0.02c0.127-0.012,0.262-0.031,0.406-0.057v1.688c-0.355,0.102-0.627,0.165-0.812,0.19
			s-0.439,0.038-0.762,0.038c-0.787,0-1.358-0.279-1.714-0.838c-0.187-0.296-0.317-0.715-0.394-1.257
			c-0.465,0.609-1.135,1.139-2.006,1.587s-1.832,0.673-2.882,0.673c-1.261,0-2.292-0.383-3.091-1.147
			c-0.801-0.765-1.2-1.723-1.2-2.872c0-1.26,0.394-2.235,1.181-2.929s1.82-1.12,3.098-1.281L852.765,54.096z M847.953,60.269
			c0.482,0.381,1.054,0.57,1.714,0.57c0.804,0,1.583-0.186,2.336-0.558c1.27-0.617,1.904-1.627,1.904-3.029v-1.838
			c-0.278,0.179-0.638,0.327-1.077,0.445c-0.439,0.119-0.869,0.204-1.292,0.255l-1.382,0.178c-0.827,0.109-1.449,0.282-1.867,0.52
			c-0.706,0.396-1.06,1.03-1.06,1.899C847.229,59.369,847.471,59.889,847.953,60.269z"/>
		<path fill="#1D426B" d="M860.395,44.932h2.311v3.796h2.171v1.866h-2.171v8.874c0,0.474,0.16,0.791,0.482,0.952
			c0.178,0.093,0.475,0.14,0.889,0.14c0.109,0,0.229-0.003,0.355-0.009c0.127-0.005,0.275-0.02,0.444-0.042v1.815
			c-0.263,0.076-0.535,0.131-0.819,0.165c-0.283,0.034-0.59,0.051-0.92,0.051c-1.066,0-1.79-0.272-2.171-0.819
			c-0.381-0.545-0.571-1.254-0.571-2.126v-9.001h-1.841v-1.866h1.841V44.932z"/>
		<path fill="#1D426B" d="M867.161,43.675h2.323v2.59h-2.323V43.675z M867.161,48.791h2.323v13.533h-2.323V48.791z"/>
		<path fill="#1D426B" d="M882.789,50.085c1.201,1.167,1.803,2.883,1.803,5.149c0,2.19-0.529,4-1.588,5.429
			c-1.06,1.429-2.703,2.144-4.93,2.144c-1.857,0-3.332-0.632-4.425-1.896c-1.093-1.264-1.639-2.962-1.639-5.093
			c0-2.283,0.575-4.101,1.728-5.454c1.15-1.353,2.697-2.029,4.639-2.029C880.117,48.334,881.588,48.918,882.789,50.085z
			 M881.37,59.121c0.557-1.146,0.835-2.42,0.835-3.823c0-1.268-0.201-2.3-0.603-3.094c-0.636-1.251-1.732-1.877-3.289-1.877
			c-1.381,0-2.386,0.532-3.013,1.598s-0.941,2.351-0.941,3.854c0,1.446,0.314,2.65,0.941,3.614s1.623,1.445,2.988,1.445
			C879.787,60.839,880.813,60.267,881.37,59.121z"/>
		<path fill="#1D426B" d="M887.397,48.728h2.171v1.93c0.643-0.796,1.324-1.367,2.044-1.714s1.519-0.521,2.399-0.521
			c1.93,0,3.232,0.673,3.91,2.019c0.373,0.736,0.559,1.79,0.559,3.161v8.722h-2.323v-8.569c0-0.829-0.122-1.498-0.368-2.006
			c-0.406-0.847-1.143-1.27-2.209-1.27c-0.541,0-0.986,0.055-1.333,0.165c-0.626,0.187-1.177,0.559-1.65,1.117
			c-0.381,0.448-0.628,0.912-0.743,1.391c-0.113,0.478-0.171,1.161-0.171,2.05v7.122h-2.285V48.728z"/>
	</g>
	<rect x="60" y="80" fill="none" width="150" height="60"/>
	<g enable-background="new    ">
		<path fill="#666666" d="M60.498,86.419h2.941v1.084h-2.941V86.419z"/>
		<path fill="#666666" d="M68.215,81.696h1.67l2.475,7.277l2.458-7.277h1.659v8.607h-1.113v-5.08c0-0.176,0.004-0.467,0.012-0.873
			s0.012-0.842,0.012-1.307l-2.458,7.26h-1.155l-2.481-7.26v0.264c0,0.211,0.006,0.532,0.018,0.964s0.018,0.749,0.018,0.952v5.08
			h-1.113V81.696z"/>
		<path fill="#666666" d="M78.1,81.696h1.072v1.195H78.1V81.696z M78.1,84.058h1.072v6.246H78.1V84.058z"/>
		<path fill="#666666" d="M80.168,84.028h1.365l1.441,2.209l1.459-2.209l1.283,0.029l-2.115,3.029l2.209,3.217h-1.348l-1.559-2.355
			l-1.512,2.355h-1.336l2.209-3.217L80.168,84.028z"/>
		<path fill="#666666" d="M90.727,88.335c0.032,0.352,0.122,0.621,0.269,0.809c0.271,0.34,0.742,0.51,1.412,0.51
			c0.398,0,0.749-0.085,1.052-0.255s0.455-0.433,0.455-0.788c0-0.27-0.121-0.475-0.363-0.615c-0.155-0.086-0.46-0.186-0.917-0.299
			l-0.852-0.211c-0.544-0.133-0.945-0.281-1.203-0.445c-0.46-0.285-0.691-0.68-0.691-1.184c0-0.594,0.217-1.074,0.65-1.441
			c0.433-0.367,1.016-0.551,1.749-0.551c0.958,0,1.649,0.277,2.072,0.832c0.265,0.352,0.394,0.73,0.386,1.137H93.75
			c-0.02-0.237-0.106-0.452-0.258-0.646c-0.248-0.276-0.678-0.414-1.29-0.414c-0.408,0-0.717,0.076-0.927,0.228
			c-0.21,0.152-0.315,0.353-0.315,0.602c0,0.272,0.138,0.49,0.414,0.654c0.159,0.097,0.394,0.183,0.704,0.257l0.71,0.17
			c0.772,0.184,1.29,0.361,1.552,0.533c0.41,0.27,0.615,0.693,0.615,1.271c0,0.559-0.215,1.041-0.644,1.447
			c-0.429,0.406-1.083,0.609-1.961,0.609c-0.945,0-1.614-0.212-2.008-0.636s-0.604-0.948-0.632-1.573H90.727z"/>
		<path fill="#666666" d="M96.311,82.276h1.066v1.752h1.002v0.861h-1.002v4.096c0,0.219,0.074,0.365,0.223,0.439
			c0.082,0.043,0.219,0.064,0.41,0.064c0.051,0,0.105-0.001,0.164-0.004s0.127-0.009,0.205-0.02v0.838
			c-0.121,0.035-0.247,0.061-0.378,0.076s-0.272,0.023-0.425,0.023c-0.492,0-0.826-0.126-1.002-0.378s-0.264-0.579-0.264-0.981
			V84.89h-0.85v-0.861h0.85V82.276z"/>
		<path fill="#666666" d="M102.797,86.506c0.242-0.031,0.404-0.133,0.486-0.304c0.047-0.095,0.07-0.229,0.07-0.406
			c0-0.36-0.128-0.622-0.383-0.785c-0.255-0.163-0.621-0.244-1.097-0.244c-0.55,0-0.939,0.149-1.169,0.447
			c-0.129,0.165-0.212,0.41-0.251,0.736h-0.984c0.02-0.775,0.27-1.315,0.752-1.619s1.041-0.455,1.677-0.455
			c0.737,0,1.336,0.141,1.797,0.422c0.457,0.281,0.685,0.719,0.685,1.312v3.615c0,0.109,0.022,0.197,0.067,0.264s0.14,0.1,0.284,0.1
			c0.047,0,0.1-0.003,0.158-0.009s0.121-0.015,0.188-0.026v0.779c-0.164,0.047-0.289,0.076-0.375,0.088s-0.203,0.018-0.352,0.018
			c-0.363,0-0.627-0.129-0.791-0.387c-0.086-0.137-0.146-0.33-0.182-0.58c-0.215,0.281-0.523,0.525-0.926,0.732
			s-0.846,0.311-1.33,0.311c-0.582,0-1.058-0.177-1.427-0.529c-0.369-0.354-0.554-0.795-0.554-1.326
			c0-0.581,0.182-1.031,0.545-1.352c0.363-0.319,0.84-0.517,1.43-0.591L102.797,86.506z M100.576,89.355
			c0.223,0.175,0.486,0.263,0.791,0.263c0.371,0,0.73-0.086,1.078-0.258c0.586-0.284,0.879-0.75,0.879-1.397v-0.849
			c-0.129,0.082-0.294,0.151-0.497,0.206s-0.401,0.094-0.597,0.117l-0.637,0.082c-0.382,0.051-0.669,0.131-0.862,0.239
			c-0.326,0.184-0.489,0.476-0.489,0.877C100.242,88.94,100.354,89.18,100.576,89.355z"/>
		<path fill="#666666" d="M106.02,84.058h1.031v0.832c0.211-0.285,0.442-0.506,0.693-0.662c0.356-0.234,0.775-0.352,1.257-0.352
			c0.713,0,1.318,0.272,1.815,0.817s0.746,1.323,0.746,2.335c0,1.367-0.359,2.344-1.077,2.93c-0.455,0.371-0.984,0.557-1.588,0.557
			c-0.475,0-0.873-0.104-1.194-0.311c-0.188-0.117-0.398-0.318-0.629-0.604v3.205h-1.055V84.058z M109.988,88.977
			c0.327-0.412,0.491-1.028,0.491-1.849c0-0.5-0.072-0.93-0.218-1.289c-0.274-0.691-0.776-1.037-1.505-1.037
			c-0.733,0-1.235,0.365-1.505,1.096c-0.146,0.391-0.218,0.887-0.218,1.488c0,0.484,0.072,0.896,0.218,1.236
			c0.274,0.648,0.776,0.973,1.505,0.973C109.25,89.595,109.66,89.389,109.988,88.977z"/>
		<path fill="#666666" d="M112.811,81.696h1.055v8.607h-1.055V81.696z"/>
		<path fill="#666666" d="M119.323,84.201c0.416,0.209,0.732,0.479,0.949,0.812c0.21,0.316,0.35,0.686,0.419,1.107
			c0.062,0.289,0.093,0.75,0.093,1.383h-4.564c0.02,0.639,0.168,1.15,0.448,1.536c0.279,0.386,0.711,0.579,1.296,0.579
			c0.546,0,0.982-0.183,1.308-0.548c0.182-0.211,0.311-0.457,0.387-0.735h1.037c-0.027,0.23-0.118,0.487-0.272,0.771
			s-0.327,0.515-0.517,0.694c-0.318,0.312-0.711,0.523-1.18,0.633c-0.252,0.062-0.537,0.094-0.855,0.094
			c-0.776,0-1.434-0.284-1.974-0.853c-0.54-0.568-0.81-1.364-0.81-2.388c0-1.008,0.271-1.826,0.815-2.455
			c0.543-0.629,1.254-0.943,2.131-0.943C118.479,83.888,118.908,83.992,119.323,84.201z M119.701,86.665
			c-0.042-0.457-0.142-0.822-0.296-1.096c-0.287-0.508-0.765-0.762-1.435-0.762c-0.48,0-0.883,0.175-1.208,0.524
			s-0.498,0.794-0.517,1.333H119.701z"/>
		<path fill="#666666" d="M122.748,88.335c0.032,0.352,0.122,0.621,0.269,0.809c0.271,0.34,0.742,0.51,1.412,0.51
			c0.398,0,0.749-0.085,1.052-0.255s0.455-0.433,0.455-0.788c0-0.27-0.121-0.475-0.363-0.615c-0.155-0.086-0.46-0.186-0.917-0.299
			l-0.852-0.211c-0.544-0.133-0.945-0.281-1.203-0.445c-0.46-0.285-0.691-0.68-0.691-1.184c0-0.594,0.217-1.074,0.65-1.441
			c0.433-0.367,1.016-0.551,1.749-0.551c0.958,0,1.649,0.277,2.072,0.832c0.265,0.352,0.394,0.73,0.386,1.137h-0.996
			c-0.02-0.237-0.106-0.452-0.258-0.646c-0.248-0.276-0.678-0.414-1.29-0.414c-0.408,0-0.717,0.076-0.927,0.228
			c-0.21,0.152-0.315,0.353-0.315,0.602c0,0.272,0.138,0.49,0.414,0.654c0.159,0.097,0.394,0.183,0.704,0.257l0.71,0.17
			c0.772,0.184,1.29,0.361,1.552,0.533c0.41,0.27,0.615,0.693,0.615,1.271c0,0.559-0.215,1.041-0.644,1.447
			c-0.429,0.406-1.083,0.609-1.961,0.609c-0.945,0-1.614-0.212-2.008-0.636s-0.604-0.948-0.632-1.573H122.748z"/>
		<path fill="#666666" d="M132.413,84.462c-0.123-0.285-0.185-0.561-0.185-0.826c0-0.555,0.187-1.015,0.561-1.38
			c0.374-0.365,0.874-0.548,1.501-0.548c0.596,0,1.062,0.17,1.396,0.51s0.502,0.745,0.502,1.218c0,0.551-0.173,1.033-0.519,1.446
			c-0.203,0.242-0.541,0.521-1.015,0.838l1.563,1.877c0.104-0.312,0.175-0.546,0.216-0.7s0.082-0.37,0.124-0.647h1.002
			c-0.066,0.551-0.198,1.079-0.396,1.585s-0.297,0.71-0.297,0.611l1.525,1.858h-1.357l-0.805-0.984
			c-0.319,0.348-0.611,0.602-0.876,0.762c-0.463,0.281-0.996,0.422-1.6,0.422c-0.891,0-1.54-0.241-1.944-0.724
			c-0.405-0.482-0.607-1.026-0.607-1.632c0-0.652,0.197-1.197,0.59-1.635c0.242-0.266,0.691-0.598,1.35-0.996
			C132.779,85.099,132.536,84.747,132.413,84.462z M134.947,89.278c0.311-0.199,0.55-0.422,0.717-0.668l-1.938-2.373
			c-0.547,0.367-0.905,0.648-1.072,0.844c-0.256,0.293-0.384,0.65-0.384,1.072c0,0.457,0.166,0.809,0.499,1.055
			s0.688,0.369,1.064,0.369C134.264,89.577,134.636,89.478,134.947,89.278z M134.864,84.399c0.228-0.265,0.341-0.559,0.341-0.883
			c0-0.253-0.083-0.472-0.25-0.655c-0.167-0.183-0.392-0.274-0.676-0.274c-0.431,0-0.73,0.145-0.897,0.433
			c-0.085,0.148-0.128,0.311-0.128,0.485c0,0.238,0.065,0.466,0.197,0.685c0.131,0.218,0.349,0.501,0.655,0.848
			C134.472,84.776,134.725,84.563,134.864,84.399z"/>
		<path fill="#666666" d="M142.904,81.696h1.67l2.475,7.277l2.458-7.277h1.659v8.607h-1.113v-5.08c0-0.176,0.004-0.467,0.012-0.873
			s0.012-0.842,0.012-1.307l-2.458,7.26h-1.155l-2.481-7.26v0.264c0,0.211,0.006,0.532,0.018,0.964s0.018,0.749,0.018,0.952v5.08
			h-1.113V81.696z"/>
		<path fill="#666666" d="M153.164,84.362v-0.809c0.762-0.074,1.293-0.198,1.594-0.372s0.525-0.585,0.674-1.233h0.832v8.355h-1.125
			v-5.941H153.164z"/>
		<path fill="#666666" d="M159.647,89.715c-0.447-0.545-0.671-1.208-0.671-1.989h1.102c0.047,0.543,0.148,0.938,0.305,1.184
			c0.273,0.441,0.768,0.662,1.482,0.662c0.555,0,1-0.148,1.336-0.445s0.504-0.68,0.504-1.148c0-0.578-0.177-0.982-0.53-1.213
			s-0.845-0.346-1.474-0.346c-0.07,0-0.142,0.001-0.214,0.003s-0.146,0.005-0.22,0.009v-0.932c0.109,0.012,0.201,0.02,0.275,0.023
			s0.154,0.006,0.24,0.006c0.395,0,0.719-0.062,0.973-0.188c0.445-0.219,0.668-0.609,0.668-1.172c0-0.418-0.148-0.74-0.445-0.967
			s-0.643-0.34-1.037-0.34c-0.703,0-1.189,0.234-1.459,0.703c-0.148,0.258-0.232,0.625-0.252,1.102h-1.043
			c0-0.625,0.125-1.156,0.375-1.594c0.43-0.781,1.186-1.172,2.268-1.172c0.855,0,1.518,0.19,1.986,0.571s0.703,0.933,0.703,1.655
			c0,0.516-0.139,0.934-0.416,1.254c-0.172,0.199-0.395,0.355-0.668,0.469c0.441,0.121,0.786,0.354,1.034,0.7
			s0.372,0.769,0.372,1.269c0,0.801-0.264,1.453-0.791,1.957s-1.275,0.756-2.244,0.756C160.814,90.532,160.095,90.26,159.647,89.715
			z"/>
		<path fill="#666666" d="M166.137,84.028h1.043v0.891c0.25-0.309,0.477-0.533,0.68-0.674c0.348-0.238,0.742-0.357,1.184-0.357
			c0.5,0,0.902,0.123,1.207,0.369c0.172,0.141,0.328,0.348,0.469,0.621c0.234-0.336,0.51-0.585,0.826-0.747s0.672-0.243,1.066-0.243
			c0.844,0,1.418,0.305,1.723,0.914c0.164,0.328,0.246,0.77,0.246,1.324v4.178h-1.096v-4.359c0-0.418-0.104-0.705-0.313-0.861
			s-0.464-0.234-0.765-0.234c-0.414,0-0.771,0.139-1.069,0.416s-0.448,0.74-0.448,1.389v3.65h-1.072v-4.096
			c0-0.426-0.051-0.736-0.152-0.932c-0.16-0.293-0.459-0.439-0.896-0.439c-0.398,0-0.761,0.154-1.087,0.463
			s-0.489,0.867-0.489,1.676v3.328h-1.055V84.028z"/>
		<path fill="#666666" d="M176.045,84.058h1.031v0.832c0.211-0.285,0.442-0.506,0.693-0.662c0.356-0.234,0.775-0.352,1.257-0.352
			c0.713,0,1.318,0.272,1.815,0.817s0.746,1.323,0.746,2.335c0,1.367-0.359,2.344-1.077,2.93c-0.455,0.371-0.984,0.557-1.588,0.557
			c-0.475,0-0.873-0.104-1.194-0.311c-0.188-0.117-0.398-0.318-0.629-0.604v3.205h-1.055V84.058z M180.013,88.977
			c0.327-0.412,0.491-1.028,0.491-1.849c0-0.5-0.072-0.93-0.218-1.289c-0.274-0.691-0.776-1.037-1.505-1.037
			c-0.733,0-1.235,0.365-1.505,1.096c-0.146,0.391-0.218,0.887-0.218,1.488c0,0.484,0.072,0.896,0.218,1.236
			c0.274,0.648,0.776,0.973,1.505,0.973C179.275,89.595,179.686,89.389,180.013,88.977z"/>
		<path fill="#666666" d="M183.182,84.362v-0.809c0.762-0.074,1.293-0.198,1.594-0.372s0.525-0.585,0.674-1.233h0.832v8.355h-1.125
			v-5.941H183.182z"/>
		<path fill="#666666" d="M189.85,85.394c-0.309-0.312-0.463-0.719-0.463-1.219c0-0.625,0.226-1.162,0.679-1.611
			s1.095-0.674,1.926-0.674c0.804,0,1.434,0.212,1.891,0.636c0.456,0.424,0.685,0.919,0.685,1.485c0,0.523-0.133,0.947-0.398,1.271
			c-0.148,0.184-0.379,0.363-0.691,0.539c0.349,0.16,0.624,0.344,0.824,0.551c0.372,0.391,0.559,0.898,0.559,1.523
			c0,0.738-0.248,1.364-0.744,1.878s-1.197,0.771-2.104,0.771c-0.816,0-1.507-0.222-2.071-0.665s-0.847-1.087-0.847-1.931
			c0-0.496,0.121-0.925,0.363-1.286s0.602-0.638,1.078-0.829C190.242,85.708,190.014,85.562,189.85,85.394z M193.251,89.188
			c0.322-0.264,0.483-0.657,0.483-1.181c0-0.543-0.166-0.955-0.498-1.236s-0.758-0.422-1.277-0.422
			c-0.504,0-0.915,0.144-1.233,0.431s-0.478,0.685-0.478,1.192c0,0.438,0.146,0.815,0.437,1.134s0.741,0.478,1.351,0.478
			C192.523,89.583,192.929,89.451,193.251,89.188z M193.056,85.038c0.261-0.26,0.392-0.57,0.392-0.931
			c0-0.313-0.125-0.601-0.374-0.863c-0.25-0.263-0.63-0.394-1.141-0.394c-0.507,0-0.873,0.131-1.1,0.394
			c-0.226,0.263-0.339,0.569-0.339,0.922c0,0.396,0.146,0.705,0.438,0.928c0.292,0.224,0.638,0.335,1.035,0.335
			C192.432,85.429,192.794,85.299,193.056,85.038z"/>
	</g>
	<g enable-background="new    ">
		<path fill="#666666" d="M60.498,107.419h2.941v1.084h-2.941V107.419z"/>
		<path fill="#666666" d="M70.1,102.696h1.316l3.124,8.607h-1.277l-0.898-2.578h-3.377l-0.934,2.578h-1.195L70.1,102.696z
			 M72.033,107.776l-1.325-3.803l-1.377,3.803H72.033z"/>
		<path fill="#666666" d="M75.451,105.028h1.002v0.891c0.297-0.367,0.611-0.631,0.943-0.791s0.701-0.24,1.107-0.24
			c0.891,0,1.492,0.311,1.805,0.932c0.172,0.34,0.258,0.826,0.258,1.459v4.025h-1.072v-3.955c0-0.383-0.057-0.691-0.17-0.926
			c-0.188-0.391-0.527-0.586-1.02-0.586c-0.25,0-0.455,0.025-0.615,0.076c-0.289,0.086-0.543,0.258-0.762,0.516
			c-0.176,0.207-0.29,0.421-0.343,0.642s-0.079,0.536-0.079,0.946v3.287h-1.055V105.028z"/>
		<path fill="#666666" d="M82.125,105.028h1.002v0.891c0.297-0.367,0.611-0.631,0.943-0.791s0.701-0.24,1.107-0.24
			c0.891,0,1.492,0.311,1.805,0.932c0.172,0.34,0.258,0.826,0.258,1.459v4.025h-1.072v-3.955c0-0.383-0.057-0.691-0.17-0.926
			c-0.188-0.391-0.527-0.586-1.02-0.586c-0.25,0-0.455,0.025-0.615,0.076c-0.289,0.086-0.543,0.258-0.762,0.516
			c-0.176,0.207-0.29,0.421-0.343,0.642s-0.079,0.536-0.079,0.946v3.287h-1.055V105.028z"/>
		<path fill="#666666" d="M92.675,105.201c0.416,0.209,0.732,0.479,0.949,0.812c0.21,0.316,0.35,0.686,0.419,1.107
			c0.062,0.289,0.093,0.75,0.093,1.383h-4.564c0.02,0.639,0.168,1.15,0.448,1.536c0.279,0.386,0.711,0.579,1.296,0.579
			c0.546,0,0.982-0.183,1.308-0.548c0.182-0.211,0.311-0.457,0.387-0.735h1.037c-0.027,0.23-0.118,0.487-0.272,0.771
			s-0.327,0.515-0.517,0.694c-0.318,0.312-0.711,0.523-1.18,0.633c-0.252,0.062-0.537,0.094-0.855,0.094
			c-0.776,0-1.434-0.284-1.974-0.853c-0.54-0.568-0.81-1.364-0.81-2.388c0-1.008,0.271-1.826,0.815-2.455
			c0.543-0.629,1.254-0.943,2.131-0.943C91.831,104.888,92.26,104.992,92.675,105.201z M93.053,107.665
			c-0.042-0.457-0.142-0.822-0.296-1.096c-0.287-0.508-0.765-0.762-1.435-0.762c-0.48,0-0.883,0.175-1.208,0.524
			s-0.498,0.794-0.517,1.333H93.053z"/>
		<path fill="#666666" d="M98.836,107.506c0.242-0.031,0.404-0.133,0.486-0.304c0.047-0.095,0.07-0.229,0.07-0.406
			c0-0.36-0.128-0.622-0.383-0.785c-0.255-0.163-0.621-0.244-1.097-0.244c-0.55,0-0.939,0.149-1.169,0.447
			c-0.129,0.165-0.212,0.41-0.251,0.736h-0.984c0.02-0.775,0.27-1.315,0.752-1.619s1.041-0.455,1.677-0.455
			c0.737,0,1.336,0.141,1.797,0.422c0.457,0.281,0.685,0.719,0.685,1.312v3.615c0,0.109,0.022,0.197,0.067,0.264s0.14,0.1,0.284,0.1
			c0.047,0,0.1-0.003,0.158-0.009s0.121-0.015,0.188-0.026v0.779c-0.164,0.047-0.289,0.076-0.375,0.088s-0.203,0.018-0.352,0.018
			c-0.363,0-0.627-0.129-0.791-0.387c-0.086-0.137-0.146-0.33-0.182-0.58c-0.215,0.281-0.523,0.525-0.926,0.732
			s-0.846,0.311-1.33,0.311c-0.582,0-1.058-0.177-1.427-0.529c-0.369-0.354-0.554-0.795-0.554-1.326
			c0-0.581,0.182-1.031,0.545-1.352c0.363-0.319,0.84-0.517,1.43-0.591L98.836,107.506z M96.615,110.355
			c0.223,0.175,0.486,0.263,0.791,0.263c0.371,0,0.73-0.086,1.078-0.258c0.586-0.284,0.879-0.75,0.879-1.397v-0.849
			c-0.129,0.082-0.294,0.151-0.497,0.206s-0.401,0.094-0.597,0.117l-0.637,0.082c-0.382,0.051-0.669,0.131-0.862,0.239
			c-0.326,0.184-0.489,0.476-0.489,0.877C96.281,109.94,96.393,110.18,96.615,110.355z"/>
		<path fill="#666666" d="M102.176,102.696h1.055v8.607h-1.055V102.696z"/>
		<path fill="#666666" d="M104.812,102.696h1.072v1.195h-1.072V102.696z M104.812,105.058h1.072v6.246h-1.072V105.058z"/>
		<path fill="#666666" d="M107.479,105.028h1.002v0.891c0.297-0.367,0.611-0.631,0.943-0.791s0.701-0.24,1.107-0.24
			c0.891,0,1.492,0.311,1.805,0.932c0.172,0.34,0.258,0.826,0.258,1.459v4.025h-1.072v-3.955c0-0.383-0.057-0.691-0.17-0.926
			c-0.188-0.391-0.527-0.586-1.02-0.586c-0.25,0-0.455,0.025-0.615,0.076c-0.289,0.086-0.543,0.258-0.762,0.516
			c-0.176,0.207-0.29,0.421-0.343,0.642s-0.079,0.536-0.079,0.946v3.287h-1.055V105.028z"/>
		<path fill="#666666" d="M117.641,105.28c0.198,0.137,0.401,0.336,0.607,0.598v-0.791h0.973v5.707c0,0.797-0.117,1.426-0.351,1.887
			c-0.436,0.852-1.259,1.277-2.47,1.277c-0.674,0-1.24-0.151-1.7-0.454s-0.716-0.776-0.771-1.421h1.072
			c0.05,0.281,0.151,0.498,0.303,0.65c0.237,0.234,0.61,0.352,1.119,0.352c0.804,0,1.331-0.285,1.579-0.855
			c0.148-0.336,0.216-0.936,0.204-1.799c-0.21,0.32-0.463,0.559-0.759,0.715c-0.295,0.156-0.687,0.234-1.173,0.234
			c-0.677,0-1.27-0.241-1.777-0.724s-0.762-1.28-0.762-2.394c0-1.051,0.256-1.871,0.768-2.461s1.129-0.885,1.853-0.885
			C116.847,104.917,117.275,105.038,117.641,105.28z M117.77,106.411c-0.319-0.375-0.725-0.562-1.218-0.562
			c-0.739,0-1.244,0.348-1.516,1.043c-0.144,0.371-0.216,0.857-0.216,1.459c0,0.707,0.143,1.245,0.429,1.614
			c0.285,0.369,0.669,0.554,1.151,0.554c0.753,0,1.284-0.342,1.591-1.025c0.171-0.387,0.256-0.838,0.256-1.354
			C118.248,107.362,118.089,106.786,117.77,106.411z"/>
	</g>
	<g enable-background="new    ">
		<path fill="#666666" d="M60.498,128.419h2.941v1.084h-2.941V128.419z"/>
		<path fill="#666666" d="M68.355,123.696h3.852c0.762,0,1.376,0.216,1.845,0.647s0.702,1.038,0.702,1.819
			c0,0.672-0.209,1.257-0.626,1.755c-0.418,0.498-1.057,0.747-1.918,0.747h-2.688v3.639h-1.166V123.696z M72.878,124.88
			c-0.256-0.121-0.607-0.182-1.053-0.182h-2.304v2.982h2.304c0.52,0,0.941-0.111,1.265-0.334s0.486-0.615,0.486-1.178
			C73.576,125.536,73.343,125.106,72.878,124.88z"/>
		<path fill="#666666" d="M77.162,126.028v4.166c0,0.32,0.049,0.582,0.148,0.785c0.183,0.375,0.523,0.562,1.021,0.562
			c0.715,0,1.202-0.328,1.461-0.984c0.141-0.352,0.211-0.834,0.211-1.447v-3.082h1.055v6.275h-0.996l0.012-0.926
			c-0.134,0.238-0.301,0.439-0.5,0.604c-0.395,0.328-0.874,0.492-1.437,0.492c-0.878,0-1.476-0.299-1.794-0.896
			c-0.172-0.32-0.259-0.748-0.259-1.283v-4.266H77.162z"/>
		<path fill="#666666" d="M82.811,126.028h1.002v1.084c0.082-0.211,0.283-0.468,0.604-0.771s0.689-0.454,1.107-0.454
			c0.02,0,0.053,0.002,0.1,0.006s0.127,0.012,0.24,0.023v1.113c-0.062-0.012-0.12-0.02-0.173-0.023s-0.11-0.006-0.173-0.006
			c-0.531,0-0.939,0.171-1.225,0.513s-0.428,0.735-0.428,1.181v3.609h-1.055V126.028z"/>
		<path fill="#666666" d="M86.777,123.696h1.072v1.195h-1.072V123.696z M86.777,126.058h1.072v6.246h-1.072V126.058z"/>
		<path fill="#666666" d="M89.936,124.112c0.246-0.359,0.721-0.539,1.424-0.539c0.066,0,0.135,0.002,0.205,0.006
			s0.15,0.01,0.24,0.018v0.961c-0.11-0.008-0.19-0.013-0.24-0.015c-0.05-0.002-0.096-0.003-0.14-0.003
			c-0.324,0-0.518,0.083-0.581,0.249s-0.095,0.589-0.095,1.269h1.055v0.832H90.75v5.414h-1.043v-5.414h-0.873v-0.832h0.873v-0.984
			C89.723,124.636,89.799,124.315,89.936,124.112z"/>
		<path fill="#666666" d="M92.777,123.696h1.072v1.195h-1.072V123.696z M92.777,126.058h1.072v6.246h-1.072V126.058z"/>
		<path fill="#666666" d="M99.589,126.362c0.443,0.344,0.71,0.936,0.8,1.775h-1.025c-0.062-0.387-0.205-0.708-0.428-0.964
			s-0.58-0.384-1.072-0.384c-0.672,0-1.152,0.328-1.441,0.983c-0.188,0.425-0.281,0.95-0.281,1.574c0,0.628,0.133,1.156,0.398,1.586
			c0.266,0.429,0.684,0.644,1.254,0.644c0.438,0,0.784-0.133,1.04-0.399s0.433-0.632,0.53-1.095h1.025
			c-0.117,0.832-0.41,1.44-0.879,1.825s-1.068,0.577-1.799,0.577c-0.82,0-1.475-0.3-1.963-0.899s-0.732-1.349-0.732-2.247
			c0-1.102,0.268-1.959,0.803-2.572s1.217-0.92,2.045-0.92C98.57,125.847,99.146,126.019,99.589,126.362z"/>
		<path fill="#666666" d="M104.807,128.506c0.242-0.031,0.404-0.133,0.486-0.304c0.047-0.095,0.07-0.229,0.07-0.406
			c0-0.36-0.128-0.622-0.383-0.785c-0.255-0.163-0.621-0.244-1.097-0.244c-0.55,0-0.939,0.149-1.169,0.447
			c-0.129,0.165-0.212,0.41-0.251,0.736h-0.984c0.02-0.775,0.27-1.315,0.752-1.619s1.041-0.455,1.677-0.455
			c0.737,0,1.336,0.141,1.797,0.422c0.457,0.281,0.685,0.719,0.685,1.312v3.615c0,0.109,0.022,0.197,0.067,0.264s0.14,0.1,0.284,0.1
			c0.047,0,0.1-0.003,0.158-0.009s0.121-0.015,0.188-0.026v0.779c-0.164,0.047-0.289,0.076-0.375,0.088s-0.203,0.018-0.352,0.018
			c-0.363,0-0.627-0.129-0.791-0.387c-0.086-0.137-0.146-0.33-0.182-0.58c-0.215,0.281-0.523,0.525-0.926,0.732
			s-0.846,0.311-1.33,0.311c-0.582,0-1.058-0.177-1.427-0.529c-0.369-0.354-0.554-0.795-0.554-1.326
			c0-0.581,0.182-1.031,0.545-1.352c0.363-0.319,0.84-0.517,1.43-0.591L104.807,128.506z M102.586,131.355
			c0.223,0.175,0.486,0.263,0.791,0.263c0.371,0,0.73-0.086,1.078-0.258c0.586-0.284,0.879-0.75,0.879-1.397v-0.849
			c-0.129,0.082-0.294,0.151-0.497,0.206s-0.401,0.094-0.597,0.117l-0.637,0.082c-0.382,0.051-0.669,0.131-0.862,0.239
			c-0.326,0.184-0.489,0.476-0.489,0.877C102.252,130.94,102.363,131.18,102.586,131.355z"/>
		<path fill="#666666" d="M108.328,124.276h1.066v1.752h1.002v0.861h-1.002v4.096c0,0.219,0.074,0.365,0.223,0.439
			c0.082,0.043,0.219,0.064,0.41,0.064c0.051,0,0.105-0.001,0.164-0.004s0.127-0.009,0.205-0.02v0.838
			c-0.121,0.035-0.247,0.061-0.378,0.076s-0.272,0.023-0.425,0.023c-0.492,0-0.826-0.126-1.002-0.378s-0.264-0.579-0.264-0.981
			v-4.154h-0.85v-0.861h0.85V124.276z"/>
		<path fill="#666666" d="M111.451,123.696h1.072v1.195h-1.072V123.696z M111.451,126.058h1.072v6.246h-1.072V126.058z"/>
		<path fill="#666666" d="M118.664,126.654c0.555,0.539,0.832,1.331,0.832,2.377c0,1.011-0.245,1.847-0.733,2.506
			c-0.488,0.659-1.247,0.989-2.274,0.989c-0.857,0-1.538-0.292-2.042-0.875c-0.504-0.584-0.756-1.367-0.756-2.351
			c0-1.054,0.266-1.893,0.797-2.518c0.532-0.624,1.245-0.937,2.141-0.937C117.431,125.847,118.109,126.116,118.664,126.654z
			 M118.009,130.825c0.257-0.528,0.385-1.117,0.385-1.765c0-0.585-0.093-1.061-0.278-1.428c-0.293-0.577-0.799-0.866-1.518-0.866
			c-0.638,0-1.101,0.246-1.391,0.737c-0.29,0.492-0.435,1.085-0.435,1.779c0,0.667,0.145,1.223,0.435,1.668
			c0.29,0.444,0.749,0.667,1.379,0.667C117.278,131.618,117.752,131.354,118.009,130.825z"/>
		<path fill="#666666" d="M120.791,126.028h1.002v0.891c0.297-0.367,0.611-0.631,0.943-0.791s0.701-0.24,1.107-0.24
			c0.891,0,1.492,0.311,1.805,0.932c0.172,0.34,0.258,0.826,0.258,1.459v4.025h-1.072v-3.955c0-0.383-0.057-0.691-0.17-0.926
			c-0.188-0.391-0.527-0.586-1.02-0.586c-0.25,0-0.455,0.025-0.615,0.076c-0.289,0.086-0.543,0.258-0.762,0.516
			c-0.176,0.207-0.29,0.421-0.343,0.642s-0.079,0.536-0.079,0.946v3.287h-1.055V126.028z"/>
	</g>
	<rect x="760" y="80" fill="none" width="150" height="60"/>
	<g enable-background="new    ">
		<path fill="#666666" d="M560.498,86.419h2.941v1.084h-2.941V86.419z"/>
		<path fill="#666666" d="M570.1,81.696h1.316l3.124,8.607h-1.277l-0.898-2.578h-3.377l-0.934,2.578h-1.195L570.1,81.696z
			 M572.033,86.776l-1.325-3.803l-1.377,3.803H572.033z"/>
		<path fill="#666666" d="M575.363,84.058h1.031v0.832c0.211-0.285,0.442-0.506,0.693-0.662c0.356-0.234,0.775-0.352,1.257-0.352
			c0.713,0,1.317,0.272,1.815,0.817s0.746,1.323,0.746,2.335c0,1.367-0.359,2.344-1.076,2.93c-0.455,0.371-0.984,0.557-1.588,0.557
			c-0.475,0-0.873-0.104-1.195-0.311c-0.188-0.117-0.397-0.318-0.629-0.604v3.205h-1.055V84.058z M579.332,88.977
			c0.326-0.412,0.49-1.028,0.49-1.849c0-0.5-0.072-0.93-0.218-1.289c-0.274-0.691-0.776-1.037-1.505-1.037
			c-0.732,0-1.234,0.365-1.505,1.096c-0.146,0.391-0.218,0.887-0.218,1.488c0,0.484,0.072,0.896,0.218,1.236
			c0.274,0.648,0.776,0.973,1.505,0.973C578.594,89.595,579.004,89.389,579.332,88.977z"/>
		<path fill="#666666" d="M582.037,84.058h1.031v0.832c0.211-0.285,0.442-0.506,0.693-0.662c0.356-0.234,0.775-0.352,1.257-0.352
			c0.713,0,1.317,0.272,1.815,0.817s0.746,1.323,0.746,2.335c0,1.367-0.359,2.344-1.076,2.93c-0.455,0.371-0.984,0.557-1.588,0.557
			c-0.475,0-0.873-0.104-1.195-0.311c-0.188-0.117-0.397-0.318-0.629-0.604v3.205h-1.055V84.058z M586.006,88.977
			c0.326-0.412,0.49-1.028,0.49-1.849c0-0.5-0.072-0.93-0.218-1.289c-0.274-0.691-0.776-1.037-1.505-1.037
			c-0.732,0-1.234,0.365-1.505,1.096c-0.146,0.391-0.218,0.887-0.218,1.488c0,0.484,0.072,0.896,0.218,1.236
			c0.274,0.648,0.776,0.973,1.505,0.973C585.268,89.595,585.678,89.389,586.006,88.977z"/>
		<path fill="#666666" d="M588.828,81.696h1.055v8.607h-1.055V81.696z"/>
		<path fill="#666666" d="M595.388,84.028h1.166c-0.148,0.402-0.479,1.321-0.99,2.755c-0.383,1.079-0.703,1.958-0.961,2.639
			c-0.608,1.6-1.038,2.576-1.288,2.927c-0.25,0.352-0.679,0.527-1.287,0.527c-0.148,0-0.264-0.006-0.344-0.018
			c-0.079-0.012-0.178-0.033-0.295-0.064v-0.961c0.184,0.051,0.316,0.082,0.397,0.094c0.082,0.012,0.154,0.018,0.217,0.018
			c0.194,0,0.339-0.032,0.43-0.097c0.092-0.064,0.169-0.144,0.231-0.236c0.02-0.031,0.09-0.191,0.211-0.479
			c0.12-0.289,0.208-0.503,0.263-0.644l-2.32-6.46h1.195l1.682,5.111L595.388,84.028z"/>
		<path fill="#666666" d="M601.203,81.696h1.178v8.607h-1.178V81.696z"/>
		<path fill="#666666" d="M604.133,84.028h1.002v0.891c0.297-0.367,0.611-0.631,0.943-0.791s0.701-0.24,1.107-0.24
			c0.891,0,1.492,0.311,1.805,0.932c0.172,0.34,0.258,0.826,0.258,1.459v4.025h-1.072v-3.955c0-0.383-0.057-0.691-0.17-0.926
			c-0.188-0.391-0.527-0.586-1.02-0.586c-0.25,0-0.455,0.025-0.615,0.076c-0.289,0.086-0.543,0.258-0.762,0.516
			c-0.176,0.207-0.29,0.421-0.343,0.642s-0.079,0.536-0.079,0.946v3.287h-1.055V84.028z"/>
		<path fill="#666666" d="M610.719,84.058h1.031v0.832c0.211-0.285,0.442-0.506,0.693-0.662c0.356-0.234,0.775-0.352,1.257-0.352
			c0.713,0,1.317,0.272,1.815,0.817s0.746,1.323,0.746,2.335c0,1.367-0.359,2.344-1.076,2.93c-0.455,0.371-0.984,0.557-1.588,0.557
			c-0.475,0-0.873-0.104-1.195-0.311c-0.188-0.117-0.397-0.318-0.629-0.604v3.205h-1.055V84.058z M614.688,88.977
			c0.326-0.412,0.49-1.028,0.49-1.849c0-0.5-0.072-0.93-0.218-1.289c-0.274-0.691-0.776-1.037-1.505-1.037
			c-0.732,0-1.234,0.365-1.505,1.096c-0.146,0.391-0.218,0.887-0.218,1.488c0,0.484,0.072,0.896,0.218,1.236
			c0.274,0.648,0.776,0.973,1.505,0.973C613.949,89.595,614.359,89.389,614.688,88.977z"/>
		<path fill="#666666" d="M618.535,84.028v4.166c0,0.32,0.049,0.582,0.148,0.785c0.183,0.375,0.523,0.562,1.021,0.562
			c0.715,0,1.202-0.328,1.461-0.984c0.141-0.352,0.211-0.834,0.211-1.447v-3.082h1.055v6.275h-0.996l0.012-0.926
			c-0.135,0.238-0.301,0.439-0.5,0.604c-0.395,0.328-0.875,0.492-1.438,0.492c-0.878,0-1.477-0.299-1.794-0.896
			c-0.173-0.32-0.259-0.748-0.259-1.283v-4.266H618.535z"/>
		<path fill="#666666" d="M624.365,82.276h1.066v1.752h1.002v0.861h-1.002v4.096c0,0.219,0.074,0.365,0.223,0.439
			c0.082,0.043,0.219,0.064,0.41,0.064c0.051,0,0.105-0.001,0.164-0.004s0.127-0.009,0.205-0.02v0.838
			c-0.121,0.035-0.247,0.061-0.378,0.076s-0.272,0.023-0.425,0.023c-0.492,0-0.826-0.126-1.002-0.378s-0.264-0.579-0.264-0.981
			V84.89h-0.85v-0.861h0.85V82.276z"/>
	</g>
	<g enable-background="new    ">
		<path fill="#666666" d="M560.498,107.419h2.941v1.084h-2.941V107.419z"/>
		<path fill="#666666" d="M568.508,102.696h1.178v8.607h-1.178V102.696z"/>
		<path fill="#666666" d="M571.438,105.028h1.002v0.891c0.297-0.367,0.611-0.631,0.943-0.791s0.701-0.24,1.107-0.24
			c0.891,0,1.492,0.311,1.805,0.932c0.172,0.34,0.258,0.826,0.258,1.459v4.025h-1.072v-3.955c0-0.383-0.057-0.691-0.17-0.926
			c-0.188-0.391-0.527-0.586-1.02-0.586c-0.25,0-0.455,0.025-0.615,0.076c-0.289,0.086-0.543,0.258-0.762,0.516
			c-0.176,0.207-0.29,0.421-0.343,0.642s-0.079,0.536-0.079,0.946v3.287h-1.055V105.028z"/>
		<path fill="#666666" d="M582.257,105.362c0.443,0.344,0.71,0.936,0.8,1.775h-1.025c-0.062-0.387-0.205-0.708-0.428-0.964
			s-0.58-0.384-1.072-0.384c-0.672,0-1.152,0.328-1.441,0.983c-0.188,0.425-0.281,0.95-0.281,1.574c0,0.628,0.133,1.156,0.398,1.586
			c0.266,0.429,0.684,0.644,1.254,0.644c0.438,0,0.784-0.133,1.04-0.399s0.433-0.632,0.53-1.095h1.025
			c-0.117,0.832-0.41,1.44-0.879,1.825s-1.068,0.577-1.799,0.577c-0.82,0-1.475-0.3-1.963-0.899s-0.732-1.349-0.732-2.247
			c0-1.102,0.268-1.959,0.803-2.572s1.217-0.92,2.045-0.92C581.238,104.847,581.813,105.019,582.257,105.362z"/>
		<path fill="#666666" d="M585.166,105.028v4.166c0,0.32,0.049,0.582,0.148,0.785c0.183,0.375,0.523,0.562,1.021,0.562
			c0.715,0,1.202-0.328,1.461-0.984c0.141-0.352,0.211-0.834,0.211-1.447v-3.082h1.055v6.275h-0.996l0.012-0.926
			c-0.135,0.238-0.301,0.439-0.5,0.604c-0.395,0.328-0.875,0.492-1.438,0.492c-0.878,0-1.477-0.299-1.794-0.896
			c-0.173-0.32-0.259-0.748-0.259-1.283v-4.266H585.166z"/>
		<path fill="#666666" d="M590.697,102.667h1.025v3.123c0.231-0.301,0.508-0.53,0.83-0.688c0.32-0.158,0.67-0.237,1.047-0.237
			c0.783,0,1.42,0.269,1.908,0.806s0.732,1.329,0.732,2.376c0,0.992-0.241,1.816-0.724,2.473s-1.151,0.984-2.006,0.984
			c-0.478,0-0.882-0.115-1.212-0.346c-0.195-0.137-0.405-0.355-0.629-0.656v0.803h-0.973V102.667z M594.73,109.892
			c0.283-0.453,0.426-1.051,0.426-1.793c0-0.66-0.143-1.207-0.426-1.641c-0.285-0.434-0.703-0.65-1.256-0.65
			c-0.482,0-0.904,0.178-1.267,0.533s-0.544,0.941-0.544,1.758c0,0.59,0.074,1.068,0.224,1.436c0.278,0.691,0.798,1.037,1.558,1.037
			C594.018,110.571,594.445,110.345,594.73,109.892z"/>
		<path fill="#666666" d="M600.822,107.506c0.242-0.031,0.404-0.133,0.486-0.304c0.047-0.095,0.07-0.229,0.07-0.406
			c0-0.36-0.128-0.622-0.383-0.785c-0.256-0.163-0.621-0.244-1.097-0.244c-0.55,0-0.939,0.149-1.169,0.447
			c-0.129,0.165-0.213,0.41-0.252,0.736h-0.984c0.02-0.775,0.27-1.315,0.752-1.619s1.041-0.455,1.677-0.455
			c0.737,0,1.337,0.141,1.797,0.422c0.456,0.281,0.685,0.719,0.685,1.312v3.615c0,0.109,0.022,0.197,0.067,0.264s0.14,0.1,0.284,0.1
			c0.047,0,0.1-0.003,0.158-0.009s0.121-0.015,0.188-0.026v0.779c-0.164,0.047-0.289,0.076-0.375,0.088s-0.203,0.018-0.352,0.018
			c-0.363,0-0.627-0.129-0.791-0.387c-0.086-0.137-0.146-0.33-0.182-0.58c-0.215,0.281-0.523,0.525-0.926,0.732
			s-0.846,0.311-1.33,0.311c-0.582,0-1.058-0.177-1.427-0.529c-0.369-0.354-0.554-0.795-0.554-1.326
			c0-0.581,0.182-1.031,0.545-1.352c0.363-0.319,0.84-0.517,1.43-0.591L600.822,107.506z M598.602,110.355
			c0.223,0.175,0.486,0.263,0.791,0.263c0.371,0,0.73-0.086,1.078-0.258c0.586-0.284,0.879-0.75,0.879-1.397v-0.849
			c-0.129,0.082-0.295,0.151-0.497,0.206s-0.401,0.094-0.597,0.117l-0.637,0.082c-0.383,0.051-0.67,0.131-0.862,0.239
			c-0.326,0.184-0.489,0.476-0.489,0.877C598.268,109.94,598.379,110.18,598.602,110.355z"/>
		<path fill="#666666" d="M604.344,103.276h1.066v1.752h1.002v0.861h-1.002v4.096c0,0.219,0.074,0.365,0.223,0.439
			c0.082,0.043,0.219,0.064,0.41,0.064c0.051,0,0.105-0.001,0.164-0.004s0.127-0.009,0.205-0.02v0.838
			c-0.121,0.035-0.247,0.061-0.378,0.076s-0.272,0.023-0.425,0.023c-0.492,0-0.826-0.126-1.002-0.378s-0.264-0.579-0.264-0.981
			v-4.154h-0.85v-0.861h0.85V103.276z"/>
		<path fill="#666666" d="M607.467,102.696h1.072v1.195h-1.072V102.696z M607.467,105.058h1.072v6.246h-1.072V105.058z"/>
		<path fill="#666666" d="M614.68,105.654c0.555,0.539,0.832,1.331,0.832,2.377c0,1.011-0.244,1.847-0.733,2.506
			c-0.488,0.659-1.247,0.989-2.274,0.989c-0.857,0-1.538-0.292-2.043-0.875c-0.504-0.584-0.756-1.367-0.756-2.351
			c0-1.054,0.266-1.893,0.797-2.518c0.531-0.624,1.245-0.937,2.141-0.937C613.446,104.847,614.125,105.116,614.68,105.654z
			 M614.025,109.825c0.256-0.528,0.385-1.117,0.385-1.765c0-0.585-0.093-1.061-0.278-1.428c-0.294-0.577-0.8-0.866-1.518-0.866
			c-0.638,0-1.101,0.246-1.391,0.737c-0.29,0.492-0.435,1.085-0.435,1.779c0,0.667,0.145,1.223,0.435,1.668
			c0.29,0.444,0.749,0.667,1.379,0.667C613.294,110.618,613.768,110.354,614.025,109.825z"/>
		<path fill="#666666" d="M616.807,105.028h1.002v0.891c0.297-0.367,0.611-0.631,0.943-0.791s0.701-0.24,1.107-0.24
			c0.891,0,1.492,0.311,1.805,0.932c0.172,0.34,0.258,0.826,0.258,1.459v4.025h-1.072v-3.955c0-0.383-0.057-0.691-0.17-0.926
			c-0.188-0.391-0.527-0.586-1.02-0.586c-0.25,0-0.455,0.025-0.615,0.076c-0.289,0.086-0.543,0.258-0.762,0.516
			c-0.176,0.207-0.29,0.421-0.343,0.642s-0.079,0.536-0.079,0.946v3.287h-1.055V105.028z"/>
	</g>
	<rect x="560" y="80" fill="none" width="150" height="60"/>
	<g enable-background="new    ">
		<path fill="#666666" d="M760.498,86.419h2.941v1.084h-2.941V86.419z"/>
		<path fill="#666666" d="M770.1,81.696h1.316l3.124,8.607h-1.277l-0.898-2.578h-3.377l-0.934,2.578h-1.195L770.1,81.696z
			 M772.033,86.776l-1.325-3.803l-1.377,3.803H772.033z"/>
		<path fill="#666666" d="M775.703,81.696h5.971v1.055h-4.805v2.613h4.225v1.025h-4.225v3.914h-1.166V81.696z"/>
		<path fill="#666666" d="M782.893,81.696h1.67l2.476,7.277l2.458-7.277h1.658v8.607h-1.113v-5.08c0-0.176,0.004-0.467,0.012-0.873
			s0.012-0.842,0.012-1.307l-2.457,7.26h-1.156l-2.48-7.26v0.264c0,0.211,0.006,0.532,0.018,0.964s0.018,0.749,0.018,0.952v5.08
			h-1.113V81.696z"/>
	</g>
	<g enable-background="new    ">
		<path fill="#666666" d="M760.498,107.419h2.941v1.084h-2.941V107.419z"/>
		<path fill="#666666" d="M768.355,102.696h6.246v1.055h-5.109v2.613h4.723v0.996h-4.723v2.918h5.197v1.025h-6.334V102.696z"/>
		<path fill="#666666" d="M776.137,102.696h1.055v8.607h-1.055V102.696z"/>
		<path fill="#666666" d="M782.649,105.201c0.415,0.209,0.731,0.479,0.949,0.812c0.21,0.316,0.35,0.686,0.419,1.107
			c0.062,0.289,0.094,0.75,0.094,1.383h-4.564c0.02,0.639,0.168,1.15,0.447,1.536s0.711,0.579,1.297,0.579
			c0.547,0,0.982-0.183,1.309-0.548c0.182-0.211,0.311-0.457,0.387-0.735h1.037c-0.027,0.23-0.118,0.487-0.272,0.771
			s-0.327,0.515-0.517,0.694c-0.318,0.312-0.711,0.523-1.18,0.633c-0.252,0.062-0.537,0.094-0.855,0.094
			c-0.776,0-1.434-0.284-1.974-0.853s-0.81-1.364-0.81-2.388c0-1.008,0.271-1.826,0.815-2.455s1.254-0.943,2.132-0.943
			C781.805,104.888,782.234,104.992,782.649,105.201z M783.027,107.665c-0.043-0.457-0.142-0.822-0.297-1.096
			c-0.286-0.508-0.765-0.762-1.435-0.762c-0.48,0-0.884,0.175-1.208,0.524c-0.326,0.35-0.498,0.794-0.518,1.333H783.027z"/>
		<path fill="#666666" d="M789.593,105.362c0.443,0.344,0.71,0.936,0.8,1.775h-1.025c-0.062-0.387-0.205-0.708-0.428-0.964
			s-0.58-0.384-1.072-0.384c-0.672,0-1.152,0.328-1.441,0.983c-0.188,0.425-0.281,0.95-0.281,1.574c0,0.628,0.133,1.156,0.398,1.586
			c0.266,0.429,0.684,0.644,1.254,0.644c0.438,0,0.784-0.133,1.04-0.399s0.433-0.632,0.53-1.095h1.025
			c-0.117,0.832-0.41,1.44-0.879,1.825s-1.068,0.577-1.799,0.577c-0.82,0-1.475-0.3-1.963-0.899s-0.732-1.349-0.732-2.247
			c0-1.102,0.268-1.959,0.803-2.572s1.217-0.92,2.045-0.92C788.574,104.847,789.149,105.019,789.593,105.362z"/>
		<path fill="#666666" d="M791.658,103.276h1.066v1.752h1.002v0.861h-1.002v4.096c0,0.219,0.074,0.365,0.223,0.439
			c0.082,0.043,0.219,0.064,0.41,0.064c0.051,0,0.105-0.001,0.164-0.004s0.127-0.009,0.205-0.02v0.838
			c-0.121,0.035-0.247,0.061-0.378,0.076s-0.272,0.023-0.425,0.023c-0.492,0-0.826-0.126-1.002-0.378s-0.264-0.579-0.264-0.981
			v-4.154h-0.85v-0.861h0.85V103.276z"/>
		<path fill="#666666" d="M794.811,105.028h1.002v1.084c0.082-0.211,0.283-0.468,0.604-0.771s0.689-0.454,1.107-0.454
			c0.02,0,0.053,0.002,0.1,0.006s0.127,0.012,0.24,0.023v1.113c-0.062-0.012-0.12-0.02-0.173-0.023s-0.11-0.006-0.173-0.006
			c-0.531,0-0.939,0.171-1.225,0.513s-0.428,0.735-0.428,1.181v3.609h-1.055V105.028z"/>
		<path fill="#666666" d="M803.324,105.654c0.555,0.539,0.832,1.331,0.832,2.377c0,1.011-0.244,1.847-0.733,2.506
			c-0.488,0.659-1.247,0.989-2.274,0.989c-0.857,0-1.538-0.292-2.043-0.875c-0.504-0.584-0.756-1.367-0.756-2.351
			c0-1.054,0.266-1.893,0.797-2.518c0.531-0.624,1.245-0.937,2.141-0.937C802.091,104.847,802.77,105.116,803.324,105.654z
			 M802.67,109.825c0.256-0.528,0.385-1.117,0.385-1.765c0-0.585-0.093-1.061-0.278-1.428c-0.294-0.577-0.8-0.866-1.518-0.866
			c-0.638,0-1.101,0.246-1.391,0.737c-0.29,0.492-0.435,1.085-0.435,1.779c0,0.667,0.145,1.223,0.435,1.668
			c0.29,0.444,0.749,0.667,1.379,0.667C801.938,110.618,802.412,110.354,802.67,109.825z"/>
		<path fill="#666666" d="M805.363,105.058h1.031v0.832c0.211-0.285,0.442-0.506,0.693-0.662c0.356-0.234,0.775-0.352,1.257-0.352
			c0.713,0,1.317,0.272,1.815,0.817s0.746,1.323,0.746,2.335c0,1.367-0.359,2.344-1.076,2.93c-0.455,0.371-0.984,0.557-1.588,0.557
			c-0.475,0-0.873-0.104-1.195-0.311c-0.188-0.117-0.397-0.318-0.629-0.604v3.205h-1.055V105.058z M809.332,109.977
			c0.326-0.412,0.49-1.028,0.49-1.849c0-0.5-0.072-0.93-0.218-1.289c-0.274-0.691-0.776-1.037-1.505-1.037
			c-0.732,0-1.234,0.365-1.505,1.096c-0.146,0.391-0.218,0.887-0.218,1.488c0,0.484,0.072,0.896,0.218,1.236
			c0.274,0.648,0.776,0.973,1.505,0.973C808.594,110.595,809.004,110.389,809.332,109.977z"/>
		<path fill="#666666" d="M812.125,102.667h1.055v3.211c0.25-0.316,0.475-0.539,0.674-0.668c0.34-0.223,0.764-0.334,1.271-0.334
			c0.91,0,1.527,0.318,1.852,0.955c0.176,0.348,0.264,0.83,0.264,1.447v4.025h-1.084v-3.955c0-0.461-0.059-0.799-0.176-1.014
			c-0.191-0.344-0.551-0.516-1.078-0.516c-0.438,0-0.834,0.15-1.189,0.451s-0.533,0.869-0.533,1.705v3.328h-1.055V102.667z"/>
		<path fill="#666666" d="M823.346,105.654c0.555,0.539,0.832,1.331,0.832,2.377c0,1.011-0.244,1.847-0.733,2.506
			c-0.488,0.659-1.247,0.989-2.274,0.989c-0.857,0-1.538-0.292-2.043-0.875c-0.504-0.584-0.756-1.367-0.756-2.351
			c0-1.054,0.266-1.893,0.797-2.518c0.531-0.624,1.245-0.937,2.141-0.937C822.112,104.847,822.791,105.116,823.346,105.654z
			 M822.691,109.825c0.256-0.528,0.385-1.117,0.385-1.765c0-0.585-0.093-1.061-0.278-1.428c-0.294-0.577-0.8-0.866-1.518-0.866
			c-0.638,0-1.101,0.246-1.391,0.737c-0.29,0.492-0.435,1.085-0.435,1.779c0,0.667,0.145,1.223,0.435,1.668
			c0.29,0.444,0.749,0.667,1.379,0.667C821.96,110.618,822.434,110.354,822.691,109.825z"/>
		<path fill="#666666" d="M825.502,105.028h1.002v1.084c0.082-0.211,0.283-0.468,0.604-0.771s0.689-0.454,1.107-0.454
			c0.02,0,0.053,0.002,0.1,0.006s0.127,0.012,0.24,0.023v1.113c-0.062-0.012-0.12-0.02-0.173-0.023s-0.11-0.006-0.173-0.006
			c-0.531,0-0.939,0.171-1.225,0.513s-0.428,0.735-0.428,1.181v3.609h-1.055V105.028z"/>
		<path fill="#666666" d="M833.345,105.201c0.415,0.209,0.731,0.479,0.949,0.812c0.21,0.316,0.35,0.686,0.419,1.107
			c0.062,0.289,0.094,0.75,0.094,1.383h-4.564c0.02,0.639,0.168,1.15,0.447,1.536s0.711,0.579,1.297,0.579
			c0.547,0,0.982-0.183,1.309-0.548c0.182-0.211,0.311-0.457,0.387-0.735h1.037c-0.027,0.23-0.118,0.487-0.272,0.771
			s-0.327,0.515-0.517,0.694c-0.318,0.312-0.711,0.523-1.18,0.633c-0.252,0.062-0.537,0.094-0.855,0.094
			c-0.776,0-1.434-0.284-1.974-0.853s-0.81-1.364-0.81-2.388c0-1.008,0.271-1.826,0.815-2.455s1.254-0.943,2.132-0.943
			C832.5,104.888,832.93,104.992,833.345,105.201z M833.723,107.665c-0.043-0.457-0.142-0.822-0.297-1.096
			c-0.286-0.508-0.765-0.762-1.435-0.762c-0.48,0-0.884,0.175-1.208,0.524c-0.326,0.35-0.498,0.794-0.518,1.333H833.723z"/>
		<path fill="#666666" d="M836.77,109.335c0.031,0.352,0.121,0.621,0.27,0.809c0.271,0.34,0.741,0.51,1.411,0.51
			c0.398,0,0.749-0.085,1.052-0.255c0.304-0.17,0.455-0.433,0.455-0.788c0-0.27-0.121-0.475-0.363-0.615
			c-0.154-0.086-0.461-0.186-0.917-0.299l-0.852-0.211c-0.544-0.133-0.944-0.281-1.202-0.445c-0.461-0.285-0.691-0.68-0.691-1.184
			c0-0.594,0.217-1.074,0.65-1.441s1.016-0.551,1.748-0.551c0.959,0,1.649,0.277,2.072,0.832c0.266,0.352,0.395,0.73,0.387,1.137
			h-0.996c-0.02-0.237-0.105-0.452-0.258-0.646c-0.248-0.276-0.678-0.414-1.289-0.414c-0.408,0-0.717,0.076-0.928,0.228
			c-0.209,0.152-0.314,0.353-0.314,0.602c0,0.272,0.138,0.49,0.414,0.654c0.158,0.097,0.394,0.183,0.704,0.257l0.71,0.17
			c0.772,0.184,1.29,0.361,1.553,0.533c0.41,0.27,0.615,0.693,0.615,1.271c0,0.559-0.215,1.041-0.644,1.447
			s-1.083,0.609-1.961,0.609c-0.944,0-1.614-0.212-2.008-0.636s-0.604-0.948-0.632-1.573H836.77z"/>
		<path fill="#666666" d="M842.143,102.696h1.072v1.195h-1.072V102.696z M842.143,105.058h1.072v6.246h-1.072V105.058z"/>
		<path fill="#666666" d="M845.436,109.335c0.031,0.352,0.121,0.621,0.27,0.809c0.271,0.34,0.741,0.51,1.411,0.51
			c0.398,0,0.749-0.085,1.052-0.255c0.304-0.17,0.455-0.433,0.455-0.788c0-0.27-0.121-0.475-0.363-0.615
			c-0.154-0.086-0.461-0.186-0.917-0.299l-0.852-0.211c-0.544-0.133-0.944-0.281-1.202-0.445c-0.461-0.285-0.691-0.68-0.691-1.184
			c0-0.594,0.217-1.074,0.65-1.441s1.016-0.551,1.748-0.551c0.959,0,1.649,0.277,2.072,0.832c0.266,0.352,0.395,0.73,0.387,1.137
			h-0.996c-0.02-0.237-0.105-0.452-0.258-0.646c-0.248-0.276-0.678-0.414-1.289-0.414c-0.408,0-0.717,0.076-0.928,0.228
			c-0.209,0.152-0.314,0.353-0.314,0.602c0,0.272,0.138,0.49,0.414,0.654c0.158,0.097,0.394,0.183,0.704,0.257l0.71,0.17
			c0.772,0.184,1.29,0.361,1.553,0.533c0.41,0.27,0.615,0.693,0.615,1.271c0,0.559-0.215,1.041-0.644,1.447
			s-1.083,0.609-1.961,0.609c-0.944,0-1.614-0.212-2.008-0.636s-0.604-0.948-0.632-1.573H845.436z"/>
	</g>
	<g enable-background="new    ">
		<path fill="#666666" d="M760.498,128.419h2.941v1.084h-2.941V128.419z"/>
		<path fill="#666666" d="M768.355,123.696h5.971v1.055h-4.805v2.613h4.225v1.025h-4.225v3.914h-1.166V123.696z"/>
		<path fill="#666666" d="M775.463,123.696h1.055v8.607h-1.055V123.696z"/>
		<path fill="#666666" d="M779.154,126.028v4.166c0,0.32,0.049,0.582,0.148,0.785c0.183,0.375,0.523,0.562,1.021,0.562
			c0.715,0,1.202-0.328,1.461-0.984c0.141-0.352,0.211-0.834,0.211-1.447v-3.082h1.055v6.275h-0.996l0.012-0.926
			c-0.135,0.238-0.301,0.439-0.5,0.604c-0.395,0.328-0.875,0.492-1.438,0.492c-0.878,0-1.477-0.299-1.794-0.896
			c-0.173-0.32-0.259-0.748-0.259-1.283v-4.266H779.154z"/>
		<path fill="#666666" d="M789.32,126.654c0.555,0.539,0.832,1.331,0.832,2.377c0,1.011-0.244,1.847-0.733,2.506
			c-0.488,0.659-1.247,0.989-2.274,0.989c-0.857,0-1.538-0.292-2.043-0.875c-0.504-0.584-0.756-1.367-0.756-2.351
			c0-1.054,0.266-1.893,0.797-2.518c0.531-0.624,1.245-0.937,2.141-0.937C788.087,125.847,788.766,126.116,789.32,126.654z
			 M788.666,130.825c0.256-0.528,0.385-1.117,0.385-1.765c0-0.585-0.093-1.061-0.278-1.428c-0.294-0.577-0.8-0.866-1.518-0.866
			c-0.638,0-1.101,0.246-1.391,0.737c-0.29,0.492-0.435,1.085-0.435,1.779c0,0.667,0.145,1.223,0.435,1.668
			c0.29,0.444,0.749,0.667,1.379,0.667C787.935,131.618,788.408,131.354,788.666,130.825z"/>
		<path fill="#666666" d="M791.477,126.028h1.002v1.084c0.082-0.211,0.283-0.468,0.604-0.771s0.689-0.454,1.107-0.454
			c0.02,0,0.053,0.002,0.1,0.006s0.127,0.012,0.24,0.023v1.113c-0.062-0.012-0.12-0.02-0.173-0.023s-0.11-0.006-0.173-0.006
			c-0.531,0-0.939,0.171-1.225,0.513s-0.428,0.735-0.428,1.181v3.609h-1.055V126.028z"/>
		<path fill="#666666" d="M799.319,126.201c0.415,0.209,0.731,0.479,0.949,0.812c0.21,0.316,0.35,0.686,0.419,1.107
			c0.062,0.289,0.094,0.75,0.094,1.383h-4.564c0.02,0.639,0.168,1.15,0.447,1.536s0.711,0.579,1.297,0.579
			c0.547,0,0.982-0.183,1.309-0.548c0.182-0.211,0.311-0.457,0.387-0.735h1.037c-0.027,0.23-0.118,0.487-0.272,0.771
			s-0.327,0.515-0.517,0.694c-0.318,0.312-0.711,0.523-1.18,0.633c-0.252,0.062-0.537,0.094-0.855,0.094
			c-0.776,0-1.434-0.284-1.974-0.853s-0.81-1.364-0.81-2.388c0-1.008,0.271-1.826,0.815-2.455s1.254-0.943,2.132-0.943
			C798.475,125.888,798.904,125.992,799.319,126.201z M799.697,128.665c-0.043-0.457-0.142-0.822-0.297-1.096
			c-0.286-0.508-0.765-0.762-1.435-0.762c-0.48,0-0.884,0.175-1.208,0.524c-0.326,0.35-0.498,0.794-0.518,1.333H799.697z"/>
		<path fill="#666666" d="M802.744,130.335c0.031,0.352,0.121,0.621,0.27,0.809c0.271,0.34,0.741,0.51,1.411,0.51
			c0.398,0,0.749-0.085,1.052-0.255c0.304-0.17,0.455-0.433,0.455-0.788c0-0.27-0.121-0.475-0.363-0.615
			c-0.154-0.086-0.461-0.186-0.917-0.299l-0.852-0.211c-0.544-0.133-0.944-0.281-1.202-0.445c-0.461-0.285-0.691-0.68-0.691-1.184
			c0-0.594,0.217-1.074,0.65-1.441s1.016-0.551,1.748-0.551c0.959,0,1.649,0.277,2.072,0.832c0.266,0.352,0.395,0.73,0.387,1.137
			h-0.996c-0.02-0.237-0.105-0.452-0.258-0.646c-0.248-0.276-0.678-0.414-1.289-0.414c-0.408,0-0.717,0.076-0.928,0.228
			c-0.209,0.152-0.314,0.353-0.314,0.602c0,0.272,0.138,0.49,0.414,0.654c0.158,0.097,0.394,0.183,0.704,0.257l0.71,0.17
			c0.772,0.184,1.29,0.361,1.553,0.533c0.41,0.27,0.615,0.693,0.615,1.271c0,0.559-0.215,1.041-0.644,1.447
			s-1.083,0.609-1.961,0.609c-0.944,0-1.614-0.212-2.008-0.636s-0.604-0.948-0.632-1.573H802.744z"/>
		<path fill="#666666" d="M812.263,126.362c0.443,0.344,0.71,0.936,0.8,1.775h-1.025c-0.062-0.387-0.205-0.708-0.428-0.964
			s-0.58-0.384-1.072-0.384c-0.672,0-1.152,0.328-1.441,0.983c-0.188,0.425-0.281,0.95-0.281,1.574c0,0.628,0.133,1.156,0.398,1.586
			c0.266,0.429,0.684,0.644,1.254,0.644c0.438,0,0.784-0.133,1.04-0.399s0.433-0.632,0.53-1.095h1.025
			c-0.117,0.832-0.41,1.44-0.879,1.825s-1.068,0.577-1.799,0.577c-0.82,0-1.475-0.3-1.963-0.899s-0.732-1.349-0.732-2.247
			c0-1.102,0.268-1.959,0.803-2.572s1.217-0.92,2.045-0.92C811.244,125.847,811.819,126.019,812.263,126.362z"/>
		<path fill="#666666" d="M817.993,126.201c0.415,0.209,0.731,0.479,0.949,0.812c0.21,0.316,0.35,0.686,0.419,1.107
			c0.062,0.289,0.094,0.75,0.094,1.383h-4.564c0.02,0.639,0.168,1.15,0.447,1.536s0.711,0.579,1.297,0.579
			c0.547,0,0.982-0.183,1.309-0.548c0.182-0.211,0.311-0.457,0.387-0.735h1.037c-0.027,0.23-0.118,0.487-0.272,0.771
			s-0.327,0.515-0.517,0.694c-0.318,0.312-0.711,0.523-1.18,0.633c-0.252,0.062-0.537,0.094-0.855,0.094
			c-0.776,0-1.434-0.284-1.974-0.853s-0.81-1.364-0.81-2.388c0-1.008,0.271-1.826,0.815-2.455s1.254-0.943,2.132-0.943
			C817.148,125.888,817.578,125.992,817.993,126.201z M818.371,128.665c-0.043-0.457-0.142-0.822-0.297-1.096
			c-0.286-0.508-0.765-0.762-1.435-0.762c-0.48,0-0.884,0.175-1.208,0.524c-0.326,0.35-0.498,0.794-0.518,1.333H818.371z"/>
		<path fill="#666666" d="M820.791,126.028h1.002v0.891c0.297-0.367,0.611-0.631,0.943-0.791s0.701-0.24,1.107-0.24
			c0.891,0,1.492,0.311,1.805,0.932c0.172,0.34,0.258,0.826,0.258,1.459v4.025h-1.072v-3.955c0-0.383-0.057-0.691-0.17-0.926
			c-0.188-0.391-0.527-0.586-1.02-0.586c-0.25,0-0.455,0.025-0.615,0.076c-0.289,0.086-0.543,0.258-0.762,0.516
			c-0.176,0.207-0.29,0.421-0.343,0.642s-0.079,0.536-0.079,0.946v3.287h-1.055V126.028z"/>
		<path fill="#666666" d="M831.61,126.362c0.443,0.344,0.71,0.936,0.8,1.775h-1.025c-0.062-0.387-0.205-0.708-0.428-0.964
			s-0.58-0.384-1.072-0.384c-0.672,0-1.152,0.328-1.441,0.983c-0.188,0.425-0.281,0.95-0.281,1.574c0,0.628,0.133,1.156,0.398,1.586
			c0.266,0.429,0.684,0.644,1.254,0.644c0.438,0,0.784-0.133,1.04-0.399s0.433-0.632,0.53-1.095h1.025
			c-0.117,0.832-0.41,1.44-0.879,1.825s-1.068,0.577-1.799,0.577c-0.82,0-1.475-0.3-1.963-0.899s-0.732-1.349-0.732-2.247
			c0-1.102,0.268-1.959,0.803-2.572s1.217-0.92,2.045-0.92C830.592,125.847,831.167,126.019,831.61,126.362z"/>
		<path fill="#666666" d="M837.341,126.201c0.415,0.209,0.731,0.479,0.949,0.812c0.21,0.316,0.35,0.686,0.419,1.107
			c0.062,0.289,0.094,0.75,0.094,1.383h-4.564c0.02,0.639,0.168,1.15,0.447,1.536s0.711,0.579,1.297,0.579
			c0.547,0,0.982-0.183,1.309-0.548c0.182-0.211,0.311-0.457,0.387-0.735h1.037c-0.027,0.23-0.118,0.487-0.272,0.771
			s-0.327,0.515-0.517,0.694c-0.318,0.312-0.711,0.523-1.18,0.633c-0.252,0.062-0.537,0.094-0.855,0.094
			c-0.776,0-1.434-0.284-1.974-0.853s-0.81-1.364-0.81-2.388c0-1.008,0.271-1.826,0.815-2.455s1.254-0.943,2.132-0.943
			C836.496,125.888,836.926,125.992,837.341,126.201z M837.719,128.665c-0.043-0.457-0.142-0.822-0.297-1.096
			c-0.286-0.508-0.765-0.762-1.435-0.762c-0.48,0-0.884,0.175-1.208,0.524c-0.326,0.35-0.498,0.794-0.518,1.333H837.719z"/>
		<path fill="#666666" d="M843.584,123.696h1.67l2.476,7.277l2.458-7.277h1.658v8.607h-1.113v-5.08c0-0.176,0.004-0.467,0.012-0.873
			s0.012-0.842,0.012-1.307l-2.457,7.26h-1.156l-2.48-7.26v0.264c0,0.211,0.006,0.532,0.018,0.964s0.018,0.749,0.018,0.952v5.08
			h-1.113V123.696z"/>
		<path fill="#666666" d="M853.469,123.696h1.072v1.195h-1.072V123.696z M853.469,126.058h1.072v6.246h-1.072V126.058z"/>
		<path fill="#666666" d="M860.28,126.362c0.443,0.344,0.71,0.936,0.8,1.775h-1.025c-0.062-0.387-0.205-0.708-0.428-0.964
			s-0.58-0.384-1.072-0.384c-0.672,0-1.152,0.328-1.441,0.983c-0.188,0.425-0.281,0.95-0.281,1.574c0,0.628,0.133,1.156,0.398,1.586
			c0.266,0.429,0.684,0.644,1.254,0.644c0.438,0,0.784-0.133,1.04-0.399s0.433-0.632,0.53-1.095h1.025
			c-0.117,0.832-0.41,1.44-0.879,1.825s-1.068,0.577-1.799,0.577c-0.82,0-1.475-0.3-1.963-0.899s-0.732-1.349-0.732-2.247
			c0-1.102,0.268-1.959,0.803-2.572s1.217-0.92,2.045-0.92C859.262,125.847,859.837,126.019,860.28,126.362z"/>
		<path fill="#666666" d="M862.164,126.028h1.002v1.084c0.082-0.211,0.283-0.468,0.604-0.771s0.689-0.454,1.107-0.454
			c0.02,0,0.053,0.002,0.1,0.006s0.127,0.012,0.24,0.023v1.113c-0.062-0.012-0.12-0.02-0.173-0.023s-0.11-0.006-0.173-0.006
			c-0.531,0-0.939,0.171-1.225,0.513s-0.428,0.735-0.428,1.181v3.609h-1.055V126.028z"/>
		<path fill="#666666" d="M870.678,126.654c0.555,0.539,0.832,1.331,0.832,2.377c0,1.011-0.244,1.847-0.733,2.506
			c-0.488,0.659-1.247,0.989-2.274,0.989c-0.857,0-1.538-0.292-2.043-0.875c-0.504-0.584-0.756-1.367-0.756-2.351
			c0-1.054,0.266-1.893,0.797-2.518c0.531-0.624,1.245-0.937,2.141-0.937C869.444,125.847,870.123,126.116,870.678,126.654z
			 M870.023,130.825c0.256-0.528,0.385-1.117,0.385-1.765c0-0.585-0.093-1.061-0.278-1.428c-0.294-0.577-0.8-0.866-1.518-0.866
			c-0.638,0-1.101,0.246-1.391,0.737c-0.29,0.492-0.435,1.085-0.435,1.779c0,0.667,0.145,1.223,0.435,1.668
			c0.29,0.444,0.749,0.667,1.379,0.667C869.292,131.618,869.766,131.354,870.023,130.825z"/>
		<path fill="#666666" d="M873.432,130.335c0.031,0.352,0.121,0.621,0.27,0.809c0.271,0.34,0.741,0.51,1.411,0.51
			c0.398,0,0.749-0.085,1.052-0.255c0.304-0.17,0.455-0.433,0.455-0.788c0-0.27-0.121-0.475-0.363-0.615
			c-0.154-0.086-0.461-0.186-0.917-0.299l-0.852-0.211c-0.544-0.133-0.944-0.281-1.202-0.445c-0.461-0.285-0.691-0.68-0.691-1.184
			c0-0.594,0.217-1.074,0.65-1.441s1.016-0.551,1.748-0.551c0.959,0,1.649,0.277,2.072,0.832c0.266,0.352,0.395,0.73,0.387,1.137
			h-0.996c-0.02-0.237-0.105-0.452-0.258-0.646c-0.248-0.276-0.678-0.414-1.289-0.414c-0.408,0-0.717,0.076-0.928,0.228
			c-0.209,0.152-0.314,0.353-0.314,0.602c0,0.272,0.138,0.49,0.414,0.654c0.158,0.097,0.394,0.183,0.704,0.257l0.71,0.17
			c0.772,0.184,1.29,0.361,1.553,0.533c0.41,0.27,0.615,0.693,0.615,1.271c0,0.559-0.215,1.041-0.644,1.447
			s-1.083,0.609-1.961,0.609c-0.944,0-1.614-0.212-2.008-0.636s-0.604-0.948-0.632-1.573H873.432z"/>
		<path fill="#666666" d="M882.95,126.362c0.443,0.344,0.71,0.936,0.8,1.775h-1.025c-0.062-0.387-0.205-0.708-0.428-0.964
			s-0.58-0.384-1.072-0.384c-0.672,0-1.152,0.328-1.441,0.983c-0.188,0.425-0.281,0.95-0.281,1.574c0,0.628,0.133,1.156,0.398,1.586
			c0.266,0.429,0.684,0.644,1.254,0.644c0.438,0,0.784-0.133,1.04-0.399s0.433-0.632,0.53-1.095h1.025
			c-0.117,0.832-0.41,1.44-0.879,1.825s-1.068,0.577-1.799,0.577c-0.82,0-1.475-0.3-1.963-0.899s-0.732-1.349-0.732-2.247
			c0-1.102,0.268-1.959,0.803-2.572s1.217-0.92,2.045-0.92C881.932,125.847,882.507,126.019,882.95,126.362z"/>
		<path fill="#666666" d="M889.352,126.654c0.555,0.539,0.832,1.331,0.832,2.377c0,1.011-0.244,1.847-0.733,2.506
			c-0.488,0.659-1.247,0.989-2.274,0.989c-0.857,0-1.538-0.292-2.043-0.875c-0.504-0.584-0.756-1.367-0.756-2.351
			c0-1.054,0.266-1.893,0.797-2.518c0.531-0.624,1.245-0.937,2.141-0.937C888.118,125.847,888.797,126.116,889.352,126.654z
			 M888.697,130.825c0.256-0.528,0.385-1.117,0.385-1.765c0-0.585-0.093-1.061-0.278-1.428c-0.294-0.577-0.8-0.866-1.518-0.866
			c-0.638,0-1.101,0.246-1.391,0.737c-0.29,0.492-0.435,1.085-0.435,1.779c0,0.667,0.145,1.223,0.435,1.668
			c0.29,0.444,0.749,0.667,1.379,0.667C887.966,131.618,888.439,131.354,888.697,130.825z"/>
		<path fill="#666666" d="M891.391,126.058h1.031v0.832c0.211-0.285,0.442-0.506,0.693-0.662c0.356-0.234,0.775-0.352,1.257-0.352
			c0.713,0,1.317,0.272,1.815,0.817s0.746,1.323,0.746,2.335c0,1.367-0.359,2.344-1.076,2.93c-0.455,0.371-0.984,0.557-1.588,0.557
			c-0.475,0-0.873-0.104-1.195-0.311c-0.188-0.117-0.397-0.318-0.629-0.604v3.205h-1.055V126.058z M895.359,130.977
			c0.326-0.412,0.49-1.028,0.49-1.849c0-0.5-0.072-0.93-0.218-1.289c-0.274-0.691-0.776-1.037-1.505-1.037
			c-0.732,0-1.234,0.365-1.505,1.096c-0.146,0.391-0.218,0.887-0.218,1.488c0,0.484,0.072,0.896,0.218,1.236
			c0.274,0.648,0.776,0.973,1.505,0.973C894.621,131.595,895.031,131.389,895.359,130.977z"/>
		<path fill="#666666" d="M902.028,126.201c0.415,0.209,0.731,0.479,0.949,0.812c0.21,0.316,0.35,0.686,0.419,1.107
			c0.062,0.289,0.094,0.75,0.094,1.383h-4.564c0.02,0.639,0.168,1.15,0.447,1.536s0.711,0.579,1.297,0.579
			c0.547,0,0.982-0.183,1.309-0.548c0.182-0.211,0.311-0.457,0.387-0.735h1.037c-0.027,0.23-0.118,0.487-0.272,0.771
			s-0.327,0.515-0.517,0.694c-0.318,0.312-0.711,0.523-1.18,0.633c-0.252,0.062-0.537,0.094-0.855,0.094
			c-0.776,0-1.434-0.284-1.974-0.853s-0.81-1.364-0.81-2.388c0-1.008,0.271-1.826,0.815-2.455s1.254-0.943,2.132-0.943
			C901.184,125.888,901.613,125.992,902.028,126.201z M902.406,128.665c-0.043-0.457-0.142-0.822-0.297-1.096
			c-0.286-0.508-0.765-0.762-1.435-0.762c-0.48,0-0.884,0.175-1.208,0.524c-0.326,0.35-0.498,0.794-0.518,1.333H902.406z"/>
	</g>
	<rect x="260" y="80" fill="none" width="150" height="60"/>
	<g enable-background="new    ">
		<path fill="#666666" d="M260.498,86.419h2.941v1.084h-2.941V86.419z"/>
		<path fill="#666666" d="M270.1,81.696h1.316l3.124,8.607h-1.277l-0.898-2.578h-3.377l-0.934,2.578h-1.195L270.1,81.696z
			 M272.033,86.776l-1.325-3.803l-1.377,3.803H272.033z"/>
		<path fill="#666666" d="M275.363,84.058h1.031v0.832c0.211-0.285,0.442-0.506,0.693-0.662c0.356-0.234,0.775-0.352,1.257-0.352
			c0.713,0,1.318,0.272,1.815,0.817s0.746,1.323,0.746,2.335c0,1.367-0.359,2.344-1.077,2.93c-0.455,0.371-0.984,0.557-1.588,0.557
			c-0.475,0-0.873-0.104-1.194-0.311c-0.188-0.117-0.398-0.318-0.629-0.604v3.205h-1.055V84.058z M279.332,88.977
			c0.327-0.412,0.491-1.028,0.491-1.849c0-0.5-0.072-0.93-0.218-1.289c-0.274-0.691-0.776-1.037-1.505-1.037
			c-0.733,0-1.235,0.365-1.505,1.096c-0.146,0.391-0.218,0.887-0.218,1.488c0,0.484,0.072,0.896,0.218,1.236
			c0.274,0.648,0.776,0.973,1.505,0.973C278.593,89.595,279.004,89.389,279.332,88.977z"/>
		<path fill="#666666" d="M282.037,84.058h1.031v0.832c0.211-0.285,0.442-0.506,0.693-0.662c0.356-0.234,0.775-0.352,1.257-0.352
			c0.713,0,1.318,0.272,1.815,0.817s0.746,1.323,0.746,2.335c0,1.367-0.359,2.344-1.077,2.93c-0.455,0.371-0.984,0.557-1.588,0.557
			c-0.475,0-0.873-0.104-1.194-0.311c-0.188-0.117-0.398-0.318-0.629-0.604v3.205h-1.055V84.058z M286.005,88.977
			c0.327-0.412,0.491-1.028,0.491-1.849c0-0.5-0.072-0.93-0.218-1.289c-0.274-0.691-0.776-1.037-1.505-1.037
			c-0.733,0-1.235,0.365-1.505,1.096c-0.146,0.391-0.218,0.887-0.218,1.488c0,0.484,0.072,0.896,0.218,1.236
			c0.274,0.648,0.776,0.973,1.505,0.973C285.267,89.595,285.678,89.389,286.005,88.977z"/>
		<path fill="#666666" d="M288.828,81.696h1.055v8.607h-1.055V81.696z"/>
		<path fill="#666666" d="M295.388,84.028h1.166c-0.148,0.402-0.479,1.321-0.99,2.755c-0.383,1.079-0.703,1.958-0.961,2.639
			c-0.609,1.6-1.038,2.576-1.288,2.927c-0.25,0.352-0.679,0.527-1.288,0.527c-0.148,0-0.263-0.006-0.343-0.018
			c-0.08-0.012-0.178-0.033-0.295-0.064v-0.961c0.183,0.051,0.316,0.082,0.397,0.094c0.082,0.012,0.154,0.018,0.217,0.018
			c0.195,0,0.338-0.032,0.43-0.097c0.092-0.064,0.169-0.144,0.231-0.236c0.019-0.031,0.089-0.191,0.21-0.479
			c0.121-0.289,0.208-0.503,0.263-0.644l-2.32-6.46h1.195l1.682,5.111L295.388,84.028z"/>
		<path fill="#666666" d="M301.426,88.335c0.032,0.352,0.122,0.621,0.269,0.809c0.271,0.34,0.742,0.51,1.412,0.51
			c0.398,0,0.749-0.085,1.052-0.255s0.455-0.433,0.455-0.788c0-0.27-0.121-0.475-0.363-0.615c-0.155-0.086-0.46-0.186-0.917-0.299
			l-0.852-0.211c-0.544-0.133-0.945-0.281-1.203-0.445c-0.46-0.285-0.691-0.68-0.691-1.184c0-0.594,0.217-1.074,0.65-1.441
			c0.433-0.367,1.016-0.551,1.749-0.551c0.958,0,1.649,0.277,2.072,0.832c0.265,0.352,0.394,0.73,0.386,1.137h-0.996
			c-0.02-0.237-0.106-0.452-0.258-0.646c-0.248-0.276-0.678-0.414-1.29-0.414c-0.408,0-0.717,0.076-0.927,0.228
			c-0.21,0.152-0.315,0.353-0.315,0.602c0,0.272,0.138,0.49,0.414,0.654c0.159,0.097,0.394,0.183,0.704,0.257l0.71,0.17
			c0.772,0.184,1.29,0.361,1.552,0.533c0.41,0.27,0.615,0.693,0.615,1.271c0,0.559-0.215,1.041-0.644,1.447
			c-0.429,0.406-1.083,0.609-1.961,0.609c-0.945,0-1.614-0.212-2.008-0.636s-0.604-0.948-0.632-1.573H301.426z"/>
		<path fill="#666666" d="M310.675,84.201c0.416,0.209,0.732,0.479,0.949,0.812c0.21,0.316,0.35,0.686,0.419,1.107
			c0.062,0.289,0.093,0.75,0.093,1.383h-4.564c0.02,0.639,0.168,1.15,0.448,1.536c0.279,0.386,0.711,0.579,1.296,0.579
			c0.546,0,0.982-0.183,1.308-0.548c0.182-0.211,0.311-0.457,0.387-0.735h1.037c-0.027,0.23-0.118,0.487-0.272,0.771
			s-0.327,0.515-0.517,0.694c-0.318,0.312-0.711,0.523-1.18,0.633c-0.252,0.062-0.537,0.094-0.855,0.094
			c-0.776,0-1.434-0.284-1.974-0.853c-0.54-0.568-0.81-1.364-0.81-2.388c0-1.008,0.271-1.826,0.815-2.455
			c0.543-0.629,1.254-0.943,2.131-0.943C309.831,83.888,310.26,83.992,310.675,84.201z M311.053,86.665
			c-0.042-0.457-0.142-0.822-0.296-1.096c-0.287-0.508-0.765-0.762-1.435-0.762c-0.48,0-0.883,0.175-1.208,0.524
			s-0.498,0.794-0.517,1.333H311.053z"/>
		<path fill="#666666" d="M313.991,84.028l1.676,5.109l1.746-5.109h1.154l-2.362,6.275h-1.124l-2.314-6.275H313.991z"/>
		<path fill="#666666" d="M323.349,84.201c0.416,0.209,0.732,0.479,0.949,0.812c0.21,0.316,0.35,0.686,0.419,1.107
			c0.062,0.289,0.093,0.75,0.093,1.383h-4.564c0.02,0.639,0.168,1.15,0.448,1.536c0.279,0.386,0.711,0.579,1.296,0.579
			c0.546,0,0.982-0.183,1.308-0.548c0.182-0.211,0.311-0.457,0.387-0.735h1.037c-0.027,0.23-0.118,0.487-0.272,0.771
			s-0.327,0.515-0.517,0.694c-0.318,0.312-0.711,0.523-1.18,0.633c-0.252,0.062-0.537,0.094-0.855,0.094
			c-0.776,0-1.434-0.284-1.974-0.853c-0.54-0.568-0.81-1.364-0.81-2.388c0-1.008,0.271-1.826,0.815-2.455
			c0.543-0.629,1.254-0.943,2.131-0.943C322.504,83.888,322.934,83.992,323.349,84.201z M323.727,86.665
			c-0.042-0.457-0.142-0.822-0.296-1.096c-0.287-0.508-0.765-0.762-1.435-0.762c-0.48,0-0.883,0.175-1.208,0.524
			s-0.498,0.794-0.517,1.333H323.727z"/>
		<path fill="#666666" d="M326.176,84.028h1.002v1.084c0.082-0.211,0.283-0.468,0.604-0.771s0.689-0.454,1.107-0.454
			c0.02,0,0.053,0.002,0.1,0.006s0.127,0.012,0.24,0.023v1.113c-0.062-0.012-0.12-0.02-0.173-0.023s-0.11-0.006-0.173-0.006
			c-0.531,0-0.939,0.171-1.225,0.513s-0.428,0.735-0.428,1.181v3.609h-1.055V84.028z"/>
		<path fill="#666666" d="M333.506,86.506c0.242-0.031,0.404-0.133,0.486-0.304c0.047-0.095,0.07-0.229,0.07-0.406
			c0-0.36-0.128-0.622-0.383-0.785c-0.255-0.163-0.621-0.244-1.097-0.244c-0.55,0-0.939,0.149-1.169,0.447
			c-0.129,0.165-0.212,0.41-0.251,0.736h-0.984c0.02-0.775,0.27-1.315,0.752-1.619s1.041-0.455,1.677-0.455
			c0.737,0,1.336,0.141,1.797,0.422c0.457,0.281,0.685,0.719,0.685,1.312v3.615c0,0.109,0.022,0.197,0.067,0.264s0.14,0.1,0.284,0.1
			c0.047,0,0.1-0.003,0.158-0.009s0.121-0.015,0.188-0.026v0.779c-0.164,0.047-0.289,0.076-0.375,0.088s-0.203,0.018-0.352,0.018
			c-0.363,0-0.627-0.129-0.791-0.387c-0.086-0.137-0.146-0.33-0.182-0.58c-0.215,0.281-0.523,0.525-0.926,0.732
			s-0.846,0.311-1.33,0.311c-0.582,0-1.058-0.177-1.427-0.529c-0.369-0.354-0.554-0.795-0.554-1.326
			c0-0.581,0.182-1.031,0.545-1.352c0.363-0.319,0.84-0.517,1.43-0.591L333.506,86.506z M331.285,89.355
			c0.223,0.175,0.486,0.263,0.791,0.263c0.371,0,0.73-0.086,1.078-0.258c0.586-0.284,0.879-0.75,0.879-1.397v-0.849
			c-0.129,0.082-0.294,0.151-0.497,0.206s-0.401,0.094-0.597,0.117l-0.637,0.082c-0.382,0.051-0.669,0.131-0.862,0.239
			c-0.326,0.184-0.489,0.476-0.489,0.877C330.951,88.94,331.062,89.18,331.285,89.355z"/>
		<path fill="#666666" d="M336.846,81.696h1.055v8.607h-1.055V81.696z"/>
		<path fill="#666666" d="M343.443,88.335c0.032,0.352,0.122,0.621,0.269,0.809c0.271,0.34,0.742,0.51,1.412,0.51
			c0.398,0,0.749-0.085,1.052-0.255s0.455-0.433,0.455-0.788c0-0.27-0.121-0.475-0.363-0.615c-0.155-0.086-0.46-0.186-0.917-0.299
			l-0.852-0.211c-0.544-0.133-0.945-0.281-1.203-0.445c-0.46-0.285-0.691-0.68-0.691-1.184c0-0.594,0.217-1.074,0.65-1.441
			c0.433-0.367,1.016-0.551,1.749-0.551c0.958,0,1.649,0.277,2.072,0.832c0.265,0.352,0.394,0.73,0.386,1.137h-0.996
			c-0.02-0.237-0.106-0.452-0.258-0.646c-0.248-0.276-0.678-0.414-1.29-0.414c-0.408,0-0.717,0.076-0.927,0.228
			c-0.21,0.152-0.315,0.353-0.315,0.602c0,0.272,0.138,0.49,0.414,0.654c0.159,0.097,0.394,0.183,0.704,0.257l0.71,0.17
			c0.772,0.184,1.29,0.361,1.552,0.533c0.41,0.27,0.615,0.693,0.615,1.271c0,0.559-0.215,1.041-0.644,1.447
			c-0.429,0.406-1.083,0.609-1.961,0.609c-0.945,0-1.614-0.212-2.008-0.636s-0.604-0.948-0.632-1.573H343.443z"/>
		<path fill="#666666" d="M349.027,82.276h1.066v1.752h1.002v0.861h-1.002v4.096c0,0.219,0.074,0.365,0.223,0.439
			c0.082,0.043,0.219,0.064,0.41,0.064c0.051,0,0.105-0.001,0.164-0.004s0.127-0.009,0.205-0.02v0.838
			c-0.121,0.035-0.247,0.061-0.378,0.076s-0.272,0.023-0.425,0.023c-0.492,0-0.826-0.126-1.002-0.378s-0.264-0.579-0.264-0.981
			V84.89h-0.85v-0.861h0.85V82.276z"/>
		<path fill="#666666" d="M352.18,84.028h1.002v1.084c0.082-0.211,0.283-0.468,0.604-0.771s0.689-0.454,1.107-0.454
			c0.02,0,0.053,0.002,0.1,0.006s0.127,0.012,0.24,0.023v1.113c-0.062-0.012-0.12-0.02-0.173-0.023s-0.11-0.006-0.173-0.006
			c-0.531,0-0.939,0.171-1.225,0.513s-0.428,0.735-0.428,1.181v3.609h-1.055V84.028z"/>
		<path fill="#666666" d="M359.51,86.506c0.242-0.031,0.404-0.133,0.486-0.304c0.047-0.095,0.07-0.229,0.07-0.406
			c0-0.36-0.128-0.622-0.383-0.785c-0.255-0.163-0.621-0.244-1.097-0.244c-0.55,0-0.939,0.149-1.169,0.447
			c-0.129,0.165-0.212,0.41-0.251,0.736h-0.984c0.02-0.775,0.27-1.315,0.752-1.619s1.041-0.455,1.677-0.455
			c0.737,0,1.336,0.141,1.797,0.422c0.457,0.281,0.685,0.719,0.685,1.312v3.615c0,0.109,0.022,0.197,0.067,0.264s0.14,0.1,0.284,0.1
			c0.047,0,0.1-0.003,0.158-0.009s0.121-0.015,0.188-0.026v0.779c-0.164,0.047-0.289,0.076-0.375,0.088s-0.203,0.018-0.352,0.018
			c-0.363,0-0.627-0.129-0.791-0.387c-0.086-0.137-0.146-0.33-0.182-0.58c-0.215,0.281-0.523,0.525-0.926,0.732
			s-0.846,0.311-1.33,0.311c-0.582,0-1.058-0.177-1.427-0.529c-0.369-0.354-0.554-0.795-0.554-1.326
			c0-0.581,0.182-1.031,0.545-1.352c0.363-0.319,0.84-0.517,1.43-0.591L359.51,86.506z M357.289,89.355
			c0.223,0.175,0.486,0.263,0.791,0.263c0.371,0,0.73-0.086,1.078-0.258c0.586-0.284,0.879-0.75,0.879-1.397v-0.849
			c-0.129,0.082-0.294,0.151-0.497,0.206s-0.401,0.094-0.597,0.117l-0.637,0.082c-0.382,0.051-0.669,0.131-0.862,0.239
			c-0.326,0.184-0.489,0.476-0.489,0.877C356.955,88.94,357.066,89.18,357.289,89.355z"/>
		<path fill="#666666" d="M362.82,84.028h1.002v0.891c0.297-0.367,0.611-0.631,0.943-0.791s0.701-0.24,1.107-0.24
			c0.891,0,1.492,0.311,1.805,0.932c0.172,0.34,0.258,0.826,0.258,1.459v4.025h-1.072v-3.955c0-0.383-0.057-0.691-0.17-0.926
			c-0.188-0.391-0.527-0.586-1.02-0.586c-0.25,0-0.455,0.025-0.615,0.076c-0.289,0.086-0.543,0.258-0.762,0.516
			c-0.176,0.207-0.29,0.421-0.343,0.642s-0.079,0.536-0.079,0.946v3.287h-1.055V84.028z"/>
		<path fill="#666666" d="M372.942,84.222c0.187,0.117,0.399,0.322,0.636,0.615v-3.17h1.014v8.637h-0.949v-0.873
			c-0.245,0.387-0.535,0.666-0.87,0.838c-0.335,0.172-0.718,0.258-1.15,0.258c-0.697,0-1.3-0.294-1.81-0.882
			s-0.765-1.37-0.765-2.347c0-0.914,0.232-1.706,0.697-2.376c0.465-0.67,1.129-1.005,1.994-1.005
			C372.218,83.917,372.619,84.019,372.942,84.222z M370.588,88.927c0.284,0.453,0.738,0.68,1.364,0.68
			c0.486,0,0.885-0.21,1.198-0.63s0.469-1.022,0.469-1.808c0-0.793-0.161-1.38-0.484-1.761s-0.721-0.571-1.195-0.571
			c-0.528,0-0.957,0.203-1.285,0.609c-0.329,0.406-0.493,1.004-0.493,1.793C370.162,87.911,370.304,88.474,370.588,88.927z"/>
		<path fill="#666666" d="M376.795,88.335c0.032,0.352,0.122,0.621,0.269,0.809c0.271,0.34,0.742,0.51,1.412,0.51
			c0.398,0,0.749-0.085,1.052-0.255s0.455-0.433,0.455-0.788c0-0.27-0.121-0.475-0.363-0.615c-0.155-0.086-0.46-0.186-0.917-0.299
			l-0.852-0.211c-0.544-0.133-0.945-0.281-1.203-0.445c-0.46-0.285-0.691-0.68-0.691-1.184c0-0.594,0.217-1.074,0.65-1.441
			c0.433-0.367,1.016-0.551,1.749-0.551c0.958,0,1.649,0.277,2.072,0.832c0.265,0.352,0.394,0.73,0.386,1.137h-0.996
			c-0.02-0.237-0.106-0.452-0.258-0.646c-0.248-0.276-0.678-0.414-1.29-0.414c-0.408,0-0.717,0.076-0.927,0.228
			c-0.21,0.152-0.315,0.353-0.315,0.602c0,0.272,0.138,0.49,0.414,0.654c0.159,0.097,0.394,0.183,0.704,0.257l0.71,0.17
			c0.772,0.184,1.29,0.361,1.552,0.533c0.41,0.27,0.615,0.693,0.615,1.271c0,0.559-0.215,1.041-0.644,1.447
			c-0.429,0.406-1.083,0.609-1.961,0.609c-0.945,0-1.614-0.212-2.008-0.636s-0.604-0.948-0.632-1.573H376.795z"/>
	</g>
	<g enable-background="new    ">
		<path fill="#666666" d="M260.498,107.419h2.941v1.084h-2.941V107.419z"/>
		<path fill="#666666" d="M268.508,102.696h1.178v8.607h-1.178V102.696z"/>
		<path fill="#666666" d="M271.438,105.028h1.002v0.891c0.297-0.367,0.611-0.631,0.943-0.791s0.701-0.24,1.107-0.24
			c0.891,0,1.492,0.311,1.805,0.932c0.172,0.34,0.258,0.826,0.258,1.459v4.025h-1.072v-3.955c0-0.383-0.057-0.691-0.17-0.926
			c-0.188-0.391-0.527-0.586-1.02-0.586c-0.25,0-0.455,0.025-0.615,0.076c-0.289,0.086-0.543,0.258-0.762,0.516
			c-0.176,0.207-0.29,0.421-0.343,0.642s-0.079,0.536-0.079,0.946v3.287h-1.055V105.028z"/>
		<path fill="#666666" d="M282.257,105.362c0.443,0.344,0.71,0.936,0.8,1.775h-1.025c-0.062-0.387-0.205-0.708-0.428-0.964
			s-0.58-0.384-1.072-0.384c-0.672,0-1.152,0.328-1.441,0.983c-0.188,0.425-0.281,0.95-0.281,1.574c0,0.628,0.133,1.156,0.398,1.586
			c0.266,0.429,0.684,0.644,1.254,0.644c0.438,0,0.784-0.133,1.04-0.399s0.433-0.632,0.53-1.095h1.025
			c-0.117,0.832-0.41,1.44-0.879,1.825s-1.068,0.577-1.799,0.577c-0.82,0-1.475-0.3-1.963-0.899s-0.732-1.349-0.732-2.247
			c0-1.102,0.268-1.959,0.803-2.572s1.217-0.92,2.045-0.92C281.238,104.847,281.813,105.019,282.257,105.362z"/>
		<path fill="#666666" d="M285.166,105.028v4.166c0,0.32,0.049,0.582,0.148,0.785c0.183,0.375,0.523,0.562,1.021,0.562
			c0.715,0,1.202-0.328,1.461-0.984c0.141-0.352,0.211-0.834,0.211-1.447v-3.082h1.055v6.275h-0.996l0.012-0.926
			c-0.134,0.238-0.301,0.439-0.5,0.604c-0.395,0.328-0.874,0.492-1.437,0.492c-0.878,0-1.476-0.299-1.794-0.896
			c-0.172-0.32-0.259-0.748-0.259-1.283v-4.266H285.166z"/>
		<path fill="#666666" d="M290.697,102.667h1.025v3.123c0.231-0.301,0.508-0.53,0.83-0.688c0.321-0.158,0.67-0.237,1.047-0.237
			c0.784,0,1.42,0.269,1.909,0.806s0.732,1.329,0.732,2.376c0,0.992-0.241,1.816-0.724,2.473s-1.151,0.984-2.006,0.984
			c-0.478,0-0.882-0.115-1.211-0.346c-0.196-0.137-0.406-0.355-0.629-0.656v0.803h-0.973V102.667z M294.73,109.892
			c0.284-0.453,0.426-1.051,0.426-1.793c0-0.66-0.142-1.207-0.426-1.641s-0.703-0.65-1.255-0.65c-0.482,0-0.904,0.178-1.267,0.533
			c-0.363,0.355-0.544,0.941-0.544,1.758c0,0.59,0.074,1.068,0.224,1.436c0.278,0.691,0.797,1.037,1.558,1.037
			C294.018,110.571,294.446,110.345,294.73,109.892z"/>
		<path fill="#666666" d="M300.822,107.506c0.242-0.031,0.404-0.133,0.486-0.304c0.047-0.095,0.07-0.229,0.07-0.406
			c0-0.36-0.128-0.622-0.383-0.785c-0.255-0.163-0.621-0.244-1.097-0.244c-0.55,0-0.939,0.149-1.169,0.447
			c-0.129,0.165-0.212,0.41-0.251,0.736h-0.984c0.02-0.775,0.27-1.315,0.752-1.619s1.041-0.455,1.677-0.455
			c0.737,0,1.336,0.141,1.797,0.422c0.457,0.281,0.685,0.719,0.685,1.312v3.615c0,0.109,0.022,0.197,0.067,0.264s0.14,0.1,0.284,0.1
			c0.047,0,0.1-0.003,0.158-0.009s0.121-0.015,0.188-0.026v0.779c-0.164,0.047-0.289,0.076-0.375,0.088s-0.203,0.018-0.352,0.018
			c-0.363,0-0.627-0.129-0.791-0.387c-0.086-0.137-0.146-0.33-0.182-0.58c-0.215,0.281-0.523,0.525-0.926,0.732
			s-0.846,0.311-1.33,0.311c-0.582,0-1.058-0.177-1.427-0.529c-0.369-0.354-0.554-0.795-0.554-1.326
			c0-0.581,0.182-1.031,0.545-1.352c0.363-0.319,0.84-0.517,1.43-0.591L300.822,107.506z M298.602,110.355
			c0.223,0.175,0.486,0.263,0.791,0.263c0.371,0,0.73-0.086,1.078-0.258c0.586-0.284,0.879-0.75,0.879-1.397v-0.849
			c-0.129,0.082-0.294,0.151-0.497,0.206s-0.401,0.094-0.597,0.117l-0.637,0.082c-0.382,0.051-0.669,0.131-0.862,0.239
			c-0.326,0.184-0.489,0.476-0.489,0.877C298.268,109.94,298.379,110.18,298.602,110.355z"/>
		<path fill="#666666" d="M304.344,103.276h1.066v1.752h1.002v0.861h-1.002v4.096c0,0.219,0.074,0.365,0.223,0.439
			c0.082,0.043,0.219,0.064,0.41,0.064c0.051,0,0.105-0.001,0.164-0.004s0.127-0.009,0.205-0.02v0.838
			c-0.121,0.035-0.247,0.061-0.378,0.076s-0.272,0.023-0.425,0.023c-0.492,0-0.826-0.126-1.002-0.378s-0.264-0.579-0.264-0.981
			v-4.154h-0.85v-0.861h0.85V103.276z"/>
		<path fill="#666666" d="M307.467,102.696h1.072v1.195h-1.072V102.696z M307.467,105.058h1.072v6.246h-1.072V105.058z"/>
		<path fill="#666666" d="M314.68,105.654c0.555,0.539,0.832,1.331,0.832,2.377c0,1.011-0.245,1.847-0.733,2.506
			c-0.488,0.659-1.247,0.989-2.274,0.989c-0.857,0-1.538-0.292-2.042-0.875c-0.504-0.584-0.756-1.367-0.756-2.351
			c0-1.054,0.266-1.893,0.797-2.518c0.532-0.624,1.245-0.937,2.141-0.937C313.446,104.847,314.125,105.116,314.68,105.654z
			 M314.025,109.825c0.257-0.528,0.385-1.117,0.385-1.765c0-0.585-0.093-1.061-0.278-1.428c-0.293-0.577-0.799-0.866-1.518-0.866
			c-0.638,0-1.101,0.246-1.391,0.737c-0.29,0.492-0.435,1.085-0.435,1.779c0,0.667,0.145,1.223,0.435,1.668
			c0.29,0.444,0.749,0.667,1.379,0.667C313.294,110.618,313.768,110.354,314.025,109.825z"/>
		<path fill="#666666" d="M316.807,105.028h1.002v0.891c0.297-0.367,0.611-0.631,0.943-0.791s0.701-0.24,1.107-0.24
			c0.891,0,1.492,0.311,1.805,0.932c0.172,0.34,0.258,0.826,0.258,1.459v4.025h-1.072v-3.955c0-0.383-0.057-0.691-0.17-0.926
			c-0.188-0.391-0.527-0.586-1.02-0.586c-0.25,0-0.455,0.025-0.615,0.076c-0.289,0.086-0.543,0.258-0.762,0.516
			c-0.176,0.207-0.29,0.421-0.343,0.642s-0.079,0.536-0.079,0.946v3.287h-1.055V105.028z"/>
	</g>
	<polyline fill="none" stroke="#666666" stroke-miterlimit="10" points="220,40 240,90 220,140 	"/>
	<polyline fill="none" stroke="#666666" stroke-miterlimit="10" points="520,40 540,90 520,140 	"/>
	<polyline fill="none" stroke="#666666" stroke-miterlimit="10" points="720,40 740,90 720,140 	"/>
</g>
</svg>
