<?xml version="1.0" encoding="utf-8"?>
<!-- Generator: Adobe Illustrator 16.0.4, SVG Export Plug-In . SVG Version: 6.00 Build 0)  -->
<!DOCTYPE svg PUBLIC "-//W3C//DTD SVG 1.1//EN" "http://www.w3.org/Graphics/SVG/1.1/DTD/svg11.dtd">
<svg version="1.1" id="レイヤー_1" xmlns="http://www.w3.org/2000/svg" xmlns:xlink="http://www.w3.org/1999/xlink" x="0px"
	 y="0px" width="300px" height="80px" viewBox="0 0 300 80" enable-background="new 0 0 300 80" xml:space="preserve">
<g display="none">
	<text transform="matrix(1 0 0 1 32.7842 52.3135)" display="inline" font-family="'STIXGeneral-Italic'" font-size="41.7084">K</text>
	<text transform="matrix(1 0 0 1 75.5166 50.3135)" display="inline" font-family="'STIXGeneral-Regular'" font-size="41.7084">=</text>
	<text transform="matrix(1 0 0 1 114.4307 50.3135)" display="inline"><tspan x="0" y="0" font-family="'STIXGeneral-Regular'" font-size="41.7084">e</tspan><tspan x="17.684" y="0" font-family="'STIXGeneral-Regular'" font-size="41.7084">xp</tspan></text>
	<text transform="matrix(1 0 0 1 175.7803 50.3135)" display="inline" font-family="'STIXGeneral-Regular'" font-size="41.7084">(</text>
	<text transform="matrix(1 0 0 1 258.5967 50.3135)" display="inline" font-family="'STIXGeneral-Regular'" font-size="41.7084">)</text>
	<text transform="matrix(1 0 0 1 197.165 33.1416)" display="inline" font-family="'STIXGeneral-Regular'" font-size="29.4412">−</text>
	<text transform="matrix(1 0 0 1 217.333 33.1416)" display="inline" font-family="'STIXGeneral-Italic'" font-size="29.4412">δ</text>
	<text transform="matrix(1 0 0 1 230.876 33.1416)" display="inline" font-family="'STIXGeneral-Italic'" font-size="29.4412">G</text>
	<text transform="matrix(1 0 0 1 206.9775 65.0361)" display="inline" font-family="'STIXGeneral-Italic'" font-size="29.4412">R</text>
	<text transform="matrix(1 0 0 1 224.9678 65.0361)" display="inline" font-family="'STIXGeneral-Italic'" font-size="29.4412">T</text>
	<rect x="194.713" y="39.092" display="inline" width="58.882" height="1.588"/>
</g>
<g id="outline">
	<g>
		<path d="M62.893,25.749c-1.042,0-2.001,0.625-3.211,1.543l-12.427,9.383l7.006,12.218c1.293,2.252,1.71,2.503,4.337,2.753v0.667
			H47.13v-0.667l1.209-0.125c1.292-0.125,1.918-0.626,1.918-1.335c0-0.876-0.792-2.085-1.543-3.419l-5.129-8.966l-2.71,9.883
			c-0.333,1.168-0.459,1.668-0.459,2.127c0,1.293,0.667,1.626,2.961,1.835v0.667h-10.3v-0.667c2.502-0.292,2.752-0.751,3.378-2.961
			l5.171-18.558c0.292-1.042,0.584-1.918,0.584-2.585c0-1.126-0.709-1.668-3.294-1.793v-0.667h11.259v0.667
			c-2.168,0.167-3.503,0.751-4.128,3.086l-2.21,8.09l6.38-4.545c3.711-2.627,5.963-4.712,5.963-5.713c0-0.458-0.5-0.667-1.501-0.792
			l-1-0.125v-0.667h9.216V25.749z"/>
	</g>
	<g>
		<path d="M77.519,36.969v-2.752h24.562v2.752H77.519z M77.519,45.31v-2.753h24.562v2.753H77.519z"/>
	</g>
	<g>
		<path d="M132.112,43.766c-1.626,4.546-4.545,6.965-8.716,6.965c-4.921,0-7.923-3.712-7.923-9.467
			c0-5.879,3.378-10.133,8.632-10.133c2.585,0,4.462,1.001,5.797,2.877c0.834,1.168,1.251,2.502,1.418,4.754h-12.845
			c0.208,3.17,0.417,4.796,1.918,6.798c1.167,1.543,2.71,2.294,4.629,2.294c2.794,0,4.379-1.293,6.422-4.379L132.112,43.766z
			 M127.066,37.427c-0.458-3.377-1.334-4.795-4.087-4.795c-2.335,0-3.961,1.668-4.42,4.795H127.066z"/>
		<path d="M143.708,50.313v-0.626c1.376-0.083,1.668-0.25,1.668-1c0-0.292-0.084-0.501-0.251-0.751l-3.794-5.839l-3.294,5.13
			c-0.584,0.917-0.834,1.418-0.834,1.71c0,0.542,0.458,0.75,1.668,0.75v0.626h-6.047v-0.626c1.376-0.125,1.876-0.417,3.044-2.126
			l4.754-6.881l-3.92-6.005c-1.293-1.96-1.96-2.502-3.211-2.502h-0.375v-0.625h8.632v0.625c-1.251,0.042-1.793,0.292-1.793,0.917
			c0,0.542,0.709,1.918,1.918,3.711c0.208,0.292,0.417,0.542,0.584,0.834c0.417-0.542,0.834-1.209,1.251-1.834
			c0.917-1.46,1.542-2.21,1.542-2.711c0-0.583-0.417-0.834-1.667-0.917v-0.625h6.588v0.625c-1.334,0.042-2.585,0.709-3.378,1.835
			l-3.461,5.004l5.338,8.173c1.168,1.793,2.127,2.502,3.42,2.502v0.626H143.708z"/>
		<path d="M159.6,34.425c1.835-2.293,3.67-3.294,6.005-3.294c4.045,0,6.964,3.711,6.964,8.883c0,6.046-3.795,10.717-8.757,10.717
			c-1.752,0-2.711-0.417-4.212-1.793v6.547c0,2.627,0.542,3.086,3.67,3.128v0.751h-10.092v-0.709
			c2.46-0.251,2.919-0.709,2.919-2.878V36.26c0-1.96-0.292-2.377-1.71-2.377c-0.375,0-0.667,0-1.043,0.042v-0.667
			c2.294-0.709,3.795-1.251,6.006-2.127l0.25,0.083V34.425z M159.6,46.644c0,1.251,2.377,2.753,4.337,2.753
			c3.003,0,5.046-3.128,5.046-7.715c0-4.88-2.043-8.049-5.129-8.049c-1.919,0-4.254,1.501-4.254,2.752V46.644z"/>
	</g>
	<g>
		<path d="M187.957,57.694c-6.589-3.753-10.175-10.801-10.175-17.89c0-7.715,3.628-13.72,10.3-17.682l0.376,0.667
			c-5.797,4.962-7.09,8.841-7.09,16.889c0,7.756,1.251,12.469,7.09,17.348L187.957,57.694z"/>
	</g>
	<g>
		<path d="M260.307,22.123c6.38,3.837,10.175,10.801,10.175,17.891c0,7.714-3.669,13.636-10.3,17.681l-0.376-0.667
			c5.922-4.879,7.09-8.799,7.09-16.889c0-7.798-1.043-12.594-7.09-17.348L260.307,22.123z"/>
	</g>
	<g>
		<path d="M199.049,26.666v-1.942h16.395v1.942H199.049z"/>
	</g>
	<g>
		<path d="M229.725,16.776c-1.913,0-0.941-2.12-3.562-2.12c-1.06,0-2.767,0.589-2.767,1.708c0,1.707,3.031,2.767,4.886,4.562
			c1.207,1.148,1.913,2.061,1.913,4.356c0,3.856-3.09,8.183-7.8,8.183c-2.767,0-4.356-1.501-4.356-4.18
			c0-3.768,3.532-7.594,7.3-7.947c-1.324-1.354-2.973-2.502-2.973-4.091c0-2.826,3.091-3.768,4.975-3.768
			c1.442,0,3.532,0.559,3.532,1.884C230.873,15.981,230.607,16.776,229.725,16.776z M225.84,21.957c-2.562,0-5.328,4.15-5.328,8.212
			c0,1.619,0.913,2.678,2.296,2.678c2.708,0,5.004-5.21,5.004-7.535C227.812,22.751,226.84,21.957,225.84,21.957z"/>
	</g>
	<g>
		<path d="M252.128,24.223c-1.914,0.118-2.414,0.441-2.855,2.119l-1.442,5.504c-2.267,1.266-4.386,1.825-6.976,1.825
			c-2.562,0-4.769-0.736-6.27-2.237c-1.384-1.413-2.179-3.679-2.179-5.681c0-4.15,2.208-7.888,5.387-10.096
			c1.913-1.325,4.15-2.119,6.476-2.119c1.207,0,2.649,0.206,3.944,0.706c0.677,0.265,0.971,0.294,1.295,0.294
			c0.766,0,1.266-0.294,1.766-1l0.442,0.147l-1.442,5.799l-0.53-0.088c-0.059-1.266-0.441-2.326-1.089-3.12
			c-0.912-1.119-2.325-1.737-4.15-1.737c-2.325,0-4.327,1.119-5.739,2.914c-1.913,2.443-3.12,5.71-3.12,8.978
			c0,3.856,2.148,6.152,5.945,6.152c1.325,0,2.443-0.354,3.091-1.001c0.354-0.353,0.5-0.707,1.147-2.973
			c0.589-1.972,0.766-2.679,0.766-3.326c0-0.53-0.412-0.883-1.384-0.971l-0.941-0.088v-0.471h7.859V24.223z"/>
	</g>
	<g>
		<path d="M218.28,45.815c3.886,0,6.005,1.648,6.005,4.15c0,1.413-0.736,2.855-1.943,3.768c-0.912,0.706-1.884,1.06-3.855,1.501
			l2.619,6.917c0.648,1.737,1.236,2.414,2.562,2.414v0.471h-4.327l-3.62-9.537l-1.943-0.146l-1.618,5.975
			c-0.324,1.148-0.383,1.561-0.383,1.854c0,0.883,0.294,1.207,1.972,1.384v0.471h-7.152v-0.471c1.619-0.206,2.031-0.766,2.502-2.502
			l3.503-12.687c0.206-0.795,0.354-1.354,0.354-1.854c0-0.323-0.206-0.677-0.412-0.824c-0.324-0.206-0.442-0.235-1.678-0.412v-0.471
			H218.28z M214.13,54.264c0.736,0.117,0.972,0.146,1.501,0.146c3.503,0,5.563-1.678,5.563-4.415c0-2.031-1.236-3.297-3.532-3.297
			c-0.912,0-1.53,0.324-1.678,0.884L214.13,54.264z"/>
	</g>
	<g>
		<path d="M242.305,50.643l-0.501-0.059c0.06-0.5,0.089-0.972,0.089-1.354c0-1.56-1.06-2.384-2.973-2.384h-1.707l-4.033,14.423
			c-0.177,0.618-0.412,1.295-0.412,1.942c0,0.913,0.354,1.148,1.561,1.266l1.03,0.089v0.471h-8.478v-0.471
			c2.031-0.177,2.708-0.618,3.149-2.208l4.209-15.512c-4.65,0-5.592,0.471-7.005,3.65l-0.53-0.118l1.236-4.562H243.6L242.305,50.643
			z"/>
	</g>
	<rect x="194.713" y="39.092" width="58.882" height="1.588"/>
</g>
</svg>
