<?xml version="1.0" encoding="utf-8"?>
<!-- Generator: Adobe Illustrator 16.0.4, SVG Export Plug-In . SVG Version: 6.00 Build 0)  -->
<!DOCTYPE svg PUBLIC "-//W3C//DTD SVG 1.1//EN" "http://www.w3.org/Graphics/SVG/1.1/DTD/svg11.dtd">
<svg version="1.1" id="レイヤー_1" xmlns="http://www.w3.org/2000/svg" xmlns:xlink="http://www.w3.org/1999/xlink" x="0px"
	 y="0px" width="700px" height="60px" viewBox="0 0 700 60" enable-background="new 0 0 700 60" xml:space="preserve">
<g>
	<path d="M43.502,13.964c2.431,0,4.721,0.333,6.868,0.998c2.146,0.666,4.028,1.644,5.643,2.936c1.615,1.292,2.897,2.888,3.848,4.788
		c0.949,1.9,1.425,4.104,1.425,6.612c0,2.509-0.476,4.713-1.425,6.612c-0.95,1.9-2.233,3.497-3.848,4.788
		c-1.615,1.292-3.497,2.242-5.643,2.85c-2.147,0.608-4.437,0.912-6.868,0.912c-2.433,0-4.722-0.304-6.869-0.912
		c-2.147-0.607-4.028-1.558-5.643-2.85c-1.616-1.291-2.898-2.888-3.848-4.788c-0.95-1.899-1.425-4.104-1.425-6.612
		c0-2.508,0.475-4.711,1.425-6.612c0.95-1.9,2.232-3.496,3.848-4.788c1.615-1.292,3.496-2.27,5.643-2.936
		C38.78,14.298,41.07,13.964,43.502,13.964z M43.502,20.918c-1.254,0-2.442,0.191-3.562,0.57c-1.122,0.38-2.109,0.921-2.964,1.625
		c-0.855,0.704-1.539,1.577-2.052,2.622c-0.513,1.046-0.77,2.233-0.77,3.562c0,1.331,0.256,2.519,0.77,3.562
		c0.513,1.046,1.197,1.92,2.052,2.622c0.855,0.704,1.843,1.245,2.964,1.625c1.12,0.38,2.309,0.57,3.562,0.57s2.441-0.19,3.562-0.57
		c1.12-0.38,2.109-0.921,2.964-1.625c0.855-0.702,1.539-1.576,2.052-2.622c0.513-1.044,0.77-2.232,0.77-3.562
		c0-1.33-0.256-2.517-0.77-3.562c-0.513-1.044-1.197-1.918-2.052-2.622c-0.855-0.703-1.844-1.245-2.964-1.625
		C45.943,21.109,44.756,20.918,43.502,20.918z"/>
	<path d="M66.529,20.918c0-0.417-0.133-0.684-0.399-0.798c-0.266-0.114-0.551-0.19-0.855-0.228v-0.684h18.297
		c2.85,0,5.12,0.666,6.811,1.995c1.69,1.331,2.537,3.306,2.537,5.928c0,2.052-0.599,3.677-1.795,4.874s-2.708,2.138-4.531,2.821
		l5.073,7.638c0.19,0.305,0.465,0.57,0.827,0.799c0.36,0.228,0.75,0.342,1.168,0.342v0.684H82.147v-0.684
		c0.266,0,0.56-0.048,0.884-0.143c0.322-0.095,0.484-0.294,0.484-0.599c0-0.189-0.2-0.664-0.599-1.425
		c-0.399-0.76-0.855-1.576-1.368-2.451c-0.513-0.874-1.007-1.71-1.482-2.508c-0.476-0.798-0.77-1.312-0.883-1.539h-5.472v7.638
		c0,0.419,0.143,0.685,0.428,0.798c0.285,0.114,0.636,0.191,1.054,0.229v0.684H65.39v-0.684c0.228-0.037,0.475-0.114,0.741-0.229
		c0.266-0.113,0.399-0.379,0.399-0.798V20.918z M81.806,30.152c1.215,0,2.175-0.256,2.878-0.769
		c0.703-0.513,1.054-1.283,1.054-2.309c0-0.874-0.294-1.605-0.883-2.195c-0.589-0.588-1.738-0.883-3.448-0.883h-7.695v6.156H81.806z
		"/>
	<path d="M108.367,19.893c-0.57,0.038-1.017,0.114-1.34,0.228c-0.323,0.114-0.484,0.38-0.484,0.798v21.66
		c0,0.419,0.161,0.685,0.484,0.798c0.323,0.114,0.77,0.191,1.34,0.229v0.684H97.081v-0.684c0.57-0.037,1.016-0.114,1.339-0.229
		c0.323-0.113,0.485-0.379,0.485-0.798v-21.66c0-0.417-0.162-0.684-0.485-0.798c-0.323-0.114-0.77-0.19-1.339-0.228v-0.684h11.286
		V19.893z"/>
	<path d="M140.458,38.417c0,0.381,0.094,0.723,0.285,1.026c0.189,0.305,0.456,0.456,0.798,0.456h0.513v0.684
		c-0.912,0.456-1.958,0.922-3.135,1.396c-1.178,0.476-2.451,0.903-3.819,1.283c-1.368,0.38-2.774,0.675-4.218,0.883
		c-1.444,0.209-2.888,0.313-4.332,0.313c-2.204,0-4.237-0.228-6.099-0.684c-1.862-0.456-3.449-1.206-4.76-2.252
		c-1.311-1.044-2.337-2.374-3.078-3.989c-0.741-1.615-1.111-3.543-1.111-5.786c0-2.242,0.417-4.17,1.254-5.786
		c0.835-1.615,1.957-2.944,3.363-3.99c1.405-1.045,3.011-1.824,4.816-2.337c1.804-0.513,3.676-0.77,5.614-0.77
		c1.444,0,2.765,0.085,3.961,0.256c1.197,0.171,2.251,0.371,3.164,0.599s1.662,0.427,2.251,0.599
		c0.589,0.171,0.978,0.256,1.168,0.256c0.304,0,0.503-0.057,0.599-0.171c0.095-0.114,0.218-0.247,0.371-0.399l0.684,0.114
		l-2.964,7.524l-0.684-0.342v-0.399c0-0.342-0.257-0.665-0.77-0.969c-0.513-0.304-1.15-0.579-1.91-0.827
		c-0.761-0.247-1.567-0.436-2.422-0.57c-0.855-0.133-1.625-0.2-2.309-0.2c-1.178,0-2.3,0.134-3.363,0.399
		c-1.064,0.266-1.986,0.704-2.765,1.311c-0.779,0.608-1.396,1.378-1.853,2.309c-0.456,0.932-0.684,2.062-0.684,3.392
		c0,1.368,0.228,2.537,0.684,3.506s1.083,1.767,1.881,2.394c0.798,0.627,1.729,1.093,2.793,1.396
		c1.063,0.305,2.223,0.456,3.477,0.456c0.95,0,1.881-0.065,2.793-0.199c0.912-0.133,1.824-0.351,2.736-0.655v-3.705h-4.788
		c-0.456,0-0.741,0.171-0.855,0.513c-0.114,0.342-0.171,0.627-0.171,0.855h-0.684v-7.068h0.684c0,0.228,0.057,0.513,0.171,0.855
		c0.114,0.342,0.399,0.513,0.855,0.513h11.856V38.417z"/>
	<path d="M167.19,43.605c0.114,0,0.266-0.019,0.456-0.058c0.19-0.037,0.285-0.189,0.285-0.455c0-0.152-0.067-0.39-0.2-0.713
		c-0.133-0.322-0.285-0.674-0.456-1.055c-0.171-0.379-0.352-0.76-0.542-1.14c-0.19-0.38-0.342-0.703-0.456-0.97h-13.224
		c-0.077,0.267-0.2,0.59-0.371,0.97s-0.352,0.761-0.542,1.14c-0.19,0.381-0.362,0.732-0.513,1.055
		c-0.152,0.323-0.228,0.561-0.228,0.713c0,0.266,0.095,0.418,0.285,0.455c0.189,0.039,0.342,0.058,0.456,0.058v0.684h-8.55v-0.684
		c0.228,0,0.456-0.048,0.684-0.143s0.379-0.237,0.456-0.428c1.14-2.659,2.299-5.291,3.477-7.895
		c1.177-2.603,2.232-4.959,3.164-7.068c0.931-2.109,1.7-3.856,2.309-5.244c0.607-1.387,0.912-2.175,0.912-2.366
		c0-0.342-0.248-0.532-0.741-0.57v-0.684h11.913v0.684c-0.495,0.038-0.741,0.228-0.741,0.57c0,0.114,0.2,0.618,0.599,1.511
		c0.399,0.893,0.921,2.015,1.567,3.363c0.646,1.35,1.358,2.841,2.138,4.475c0.778,1.634,1.558,3.269,2.337,4.902
		c0.778,1.635,1.51,3.184,2.194,4.646c0.684,1.464,1.234,2.689,1.653,3.677c0.076,0.19,0.228,0.333,0.456,0.428
		c0.228,0.095,0.456,0.143,0.684,0.143v0.684h-9.462V43.605z M159.553,25.137l-4.674,9.975h9.462L159.553,25.137z"/>
	<path d="M188.223,42.579c0,0.419,0.151,0.685,0.456,0.798c0.303,0.114,0.684,0.191,1.14,0.229v0.684h-8.949v-0.684
		c0.304-0.037,0.598-0.114,0.883-0.229c0.285-0.113,0.428-0.379,0.428-0.798v-21.66c0-0.417-0.143-0.684-0.428-0.798
		c-0.285-0.114-0.58-0.19-0.883-0.228v-0.684h12.369v0.684c-0.304,0.038-0.561,0.077-0.77,0.114
		c-0.209,0.039-0.313,0.152-0.313,0.342c0,0.152,0.218,0.704,0.656,1.653c0.437,0.95,0.94,1.995,1.51,3.135
		c0.57,1.14,1.102,2.214,1.596,3.22c0.493,1.007,0.798,1.663,0.912,1.967c0.456-0.912,0.978-1.91,1.567-2.993
		c0.589-1.083,1.14-2.109,1.653-3.078c0.513-0.969,0.94-1.814,1.283-2.536c0.342-0.722,0.513-1.178,0.513-1.368
		c0-0.19-0.105-0.304-0.314-0.342c-0.209-0.037-0.465-0.076-0.769-0.114v-0.684h12.426v0.684c-0.266,0.038-0.533,0.114-0.798,0.228
		c-0.267,0.114-0.399,0.38-0.399,0.798v21.66c0,0.419,0.132,0.685,0.399,0.798c0.265,0.114,0.532,0.191,0.798,0.229v0.684h-9.519
		v-0.684c0.418-0.037,0.77-0.114,1.055-0.229c0.285-0.113,0.427-0.379,0.427-0.798V26.391h-0.114l-8.493,16.473l-8.208-16.473
		h-0.114V42.579z"/>
	<path d="M229.946,19.893c-0.57,0.038-1.017,0.114-1.34,0.228c-0.323,0.114-0.484,0.38-0.484,0.798v21.66
		c0,0.419,0.161,0.685,0.484,0.798c0.323,0.114,0.77,0.191,1.34,0.229v0.684H218.66v-0.684c0.57-0.037,1.016-0.114,1.339-0.229
		c0.323-0.113,0.485-0.379,0.485-0.798v-21.66c0-0.417-0.162-0.684-0.485-0.798c-0.323-0.114-0.77-0.19-1.339-0.228v-0.684h11.286
		V19.893z"/>
	<path d="M256.964,43.605c0.721-0.076,1.168-0.199,1.339-0.371c0.171-0.171,0.256-0.389,0.256-0.655V21.261h-9.804
		c-0.305,0-0.533,0.105-0.684,0.313c-0.152,0.209-0.267,0.637-0.342,1.282h-0.684V12.71h0.684c0.076,0.646,0.19,1.074,0.342,1.283
		c0.151,0.209,0.379,0.313,0.684,0.313h28.158c0.304,0,0.532-0.104,0.684-0.313c0.151-0.208,0.266-0.636,0.342-1.283h0.684v10.146
		h-0.684c-0.077-0.646-0.191-1.073-0.342-1.282c-0.152-0.208-0.38-0.313-0.684-0.313h-9.804v21.318c0,0.267,0.085,0.484,0.256,0.655
		c0.171,0.172,0.617,0.295,1.339,0.371v0.684h-11.742V43.605z"/>
	<path d="M294.811,18.867c1.786,0,3.582,0.248,5.387,0.741c1.804,0.495,3.438,1.264,4.902,2.309
		c1.462,1.045,2.651,2.385,3.562,4.019c0.912,1.634,1.368,3.572,1.368,5.814c0,2.28-0.456,4.229-1.368,5.843
		c-0.912,1.615-2.1,2.936-3.562,3.962c-1.463,1.025-3.098,1.767-4.902,2.223c-1.805,0.456-3.601,0.684-5.387,0.684
		s-3.582-0.228-5.386-0.684c-1.805-0.456-3.439-1.197-4.902-2.223c-1.463-1.026-2.651-2.347-3.562-3.962
		c-0.912-1.614-1.368-3.562-1.368-5.843c0-2.242,0.456-4.18,1.368-5.814c0.912-1.633,2.099-2.973,3.562-4.019
		c1.462-1.044,3.097-1.814,4.902-2.309C291.229,19.114,293.025,18.867,294.811,18.867z M294.811,24.909
		c-1.064,0-2.071,0.163-3.021,0.487c-0.95,0.324-1.786,0.782-2.508,1.374c-0.722,0.591-1.282,1.308-1.682,2.146
		c-0.399,0.84-0.598,1.793-0.598,2.861c0,1.069,0.199,2.023,0.598,2.862c0.399,0.84,0.959,1.555,1.682,2.146
		c0.722,0.591,1.558,1.05,2.508,1.374c0.95,0.324,1.957,0.486,3.021,0.486c1.102,0,2.118-0.162,3.05-0.486
		c0.931-0.324,1.757-0.783,2.479-1.374c0.721-0.592,1.282-1.307,1.682-2.146c0.399-0.839,0.598-1.793,0.598-2.862
		c0-1.068-0.199-2.021-0.598-2.861c-0.399-0.839-0.96-1.555-1.682-2.146c-0.722-0.591-1.549-1.049-2.479-1.374
		C296.929,25.072,295.913,24.909,294.811,24.909z"/>
	<path d="M320.974,19.893c-0.343,0-0.685,0.067-1.026,0.2c-0.342,0.133-0.513,0.409-0.513,0.826c0,0.152,0.094,0.57,0.285,1.254
		c0.189,0.684,0.436,1.492,0.74,2.423c0.304,0.932,0.627,1.938,0.97,3.021c0.342,1.083,0.674,2.128,0.997,3.135
		c0.322,1.007,0.607,1.919,0.855,2.737c0.246,0.817,0.407,1.416,0.484,1.795h0.113c0.076-0.418,0.257-1.026,0.542-1.824
		s0.617-1.69,0.997-2.679c0.38-0.988,0.778-2.024,1.197-3.107c0.418-1.083,0.807-2.08,1.169-2.992
		c0.36-0.912,0.655-1.71,0.883-2.394c0.229-0.684,0.343-1.14,0.343-1.368c0-0.417-0.172-0.693-0.514-0.826
		c-0.342-0.133-0.684-0.2-1.025-0.2v-0.684h11.57v0.684c-0.38,0-0.74,0.067-1.083,0.2c-0.342,0.133-0.513,0.409-0.513,0.826
		c0,0.114,0.123,0.513,0.37,1.197s0.551,1.51,0.912,2.479c0.361,0.969,0.75,2.023,1.169,3.164c0.418,1.14,0.826,2.223,1.226,3.249
		c0.398,1.026,0.741,1.929,1.025,2.708c0.285,0.779,0.465,1.302,0.542,1.567h0.114c0.075-0.418,0.236-1.035,0.484-1.853
		c0.246-0.816,0.531-1.719,0.854-2.708c0.322-0.988,0.656-2.004,0.998-3.05c0.342-1.044,0.664-2.032,0.969-2.964
		c0.304-0.931,0.551-1.738,0.741-2.422c0.189-0.684,0.285-1.14,0.285-1.368c0-0.417-0.171-0.693-0.514-0.826
		c-0.342-0.133-0.703-0.2-1.083-0.2v-0.684h9.462v0.684c-0.532,0.077-0.874,0.248-1.025,0.513c-0.152,0.266-0.305,0.608-0.456,1.026
		c-0.114,0.38-0.361,1.16-0.741,2.337c-0.38,1.178-0.836,2.546-1.368,4.104c-0.532,1.559-1.074,3.192-1.624,4.902
		c-0.552,1.71-1.074,3.297-1.567,4.76c-0.495,1.463-0.894,2.688-1.197,3.676c-0.305,0.989-0.456,1.539-0.456,1.653
		c0,0.38,0.531,0.627,1.596,0.741v0.684h-12.026v-0.684c1.102-0.114,1.652-0.361,1.652-0.741c0-0.189-0.113-0.627-0.342-1.311
		c-0.228-0.685-0.513-1.501-0.854-2.451c-0.343-0.949-0.713-1.976-1.112-3.078c-0.398-1.102-0.789-2.146-1.168-3.135
		c-0.381-0.988-0.704-1.862-0.969-2.623c-0.267-0.76-0.438-1.292-0.514-1.596h-0.113c-0.077,0.305-0.248,0.836-0.514,1.596
		c-0.266,0.761-0.59,1.634-0.969,2.623c-0.38,0.988-0.77,2.033-1.169,3.135c-0.398,1.103-0.77,2.129-1.111,3.078
		c-0.342,0.95-0.627,1.767-0.854,2.451c-0.229,0.684-0.343,1.121-0.343,1.311c0,0.229,0.143,0.391,0.428,0.484
		c0.285,0.096,0.636,0.181,1.055,0.257v0.684h-11.799v-0.684c1.026-0.114,1.539-0.361,1.539-0.741c0-0.151-0.171-0.778-0.513-1.881
		c-0.342-1.102-0.77-2.441-1.283-4.019c-0.513-1.576-1.074-3.286-1.681-5.13c-0.608-1.843-1.178-3.563-1.71-5.159
		c-0.533-1.596-0.979-2.955-1.34-4.076c-0.361-1.121-0.561-1.776-0.598-1.966c-0.077-0.304-0.2-0.503-0.371-0.599
		c-0.171-0.095-0.352-0.143-0.542-0.143v-0.684h10.032V19.893z"/>
	<path d="M382.933,39.273c0.76,0,1.254-0.475,1.481-1.425h0.685v7.467h-0.57c-0.19-0.533-0.391-0.836-0.599-0.912
		c-0.209-0.076-0.541-0.114-0.997-0.114H357.51v-0.684c0.418-0.037,0.789-0.114,1.112-0.229c0.322-0.113,0.484-0.379,0.484-0.798
		v-21.66c0-0.417-0.162-0.684-0.484-0.798c-0.323-0.114-0.694-0.19-1.112-0.228v-0.684h25.879c0.228,0,0.455-0.076,0.684-0.228
		c0.228-0.151,0.342-0.493,0.342-1.026h0.685v7.638h-0.685c0-0.57-0.114-0.941-0.342-1.112c-0.229-0.171-0.456-0.256-0.684-0.256
		h-16.645v4.617h10.716c0.229,0,0.456-0.086,0.685-0.257c0.228-0.171,0.342-0.522,0.342-1.054h0.684v7.41h-0.684
		c0-0.532-0.114-0.884-0.342-1.055c-0.229-0.171-0.456-0.257-0.685-0.257h-10.716v5.644H382.933z"/>
	<path d="M391.31,20.918c0-0.417-0.134-0.684-0.398-0.798c-0.267-0.114-0.552-0.19-0.855-0.228v-0.684h18.297
		c2.851,0,5.12,0.666,6.812,1.995c1.69,1.331,2.537,3.306,2.537,5.928c0,2.052-0.599,3.677-1.796,4.874s-2.707,2.138-4.531,2.821
		l5.073,7.638c0.189,0.305,0.465,0.57,0.826,0.799c0.36,0.228,0.75,0.342,1.168,0.342v0.684h-11.514v-0.684
		c0.266,0,0.561-0.048,0.884-0.143c0.322-0.095,0.484-0.294,0.484-0.599c0-0.189-0.199-0.664-0.599-1.425
		c-0.399-0.76-0.854-1.576-1.368-2.451c-0.513-0.874-1.007-1.71-1.481-2.508c-0.476-0.798-0.77-1.312-0.884-1.539h-5.472v7.638
		c0,0.419,0.143,0.685,0.427,0.798c0.285,0.114,0.637,0.191,1.055,0.229v0.684h-9.804v-0.684c0.228-0.037,0.475-0.114,0.741-0.229
		c0.265-0.113,0.398-0.379,0.398-0.798V20.918z M406.586,30.152c1.216,0,2.175-0.256,2.878-0.769
		c0.703-0.513,1.055-1.283,1.055-2.309c0-0.874-0.295-1.605-0.883-2.195c-0.59-0.588-1.739-0.883-3.449-0.883h-7.694v6.156H406.586z
		"/>
	<path d="M438.505,16.017c0-0.266-0.086-0.484-0.257-0.656c-0.171-0.171-0.618-0.293-1.34-0.37v-0.684h21.718
		c1.558,0,2.982,0.152,4.274,0.456c1.292,0.305,2.413,0.77,3.363,1.396c0.949,0.627,1.69,1.444,2.223,2.451
		c0.532,1.007,0.798,2.214,0.798,3.62c0,1.71-0.513,3.088-1.539,4.133c-1.025,1.045-2.337,1.738-3.933,2.08v0.114
		c1.938,0.533,3.524,1.349,4.76,2.451c1.234,1.103,1.853,2.717,1.853,4.845c0,1.14-0.22,2.223-0.656,3.249
		c-0.437,1.025-1.121,1.919-2.052,2.679c-0.932,0.761-2.128,1.368-3.591,1.824s-3.202,0.684-5.216,0.684h-22.002v-0.684
		c0.722-0.076,1.169-0.199,1.34-0.371c0.171-0.171,0.257-0.389,0.257-0.655V16.017z M454.807,25.593
		c1.216,0,2.223-0.029,3.021-0.086c0.799-0.057,1.426-0.18,1.882-0.37c0.455-0.19,0.778-0.456,0.969-0.798
		c0.189-0.342,0.285-0.798,0.285-1.368c0-0.57-0.096-1.026-0.285-1.368c-0.19-0.342-0.514-0.607-0.969-0.798
		c-0.456-0.19-1.083-0.313-1.882-0.371c-0.798-0.057-1.805-0.085-3.021-0.085h-7.752v5.244H454.807z M456.744,38.247
		c2.053,0,3.496-0.256,4.332-0.77c0.836-0.513,1.254-1.396,1.254-2.65s-0.418-2.138-1.254-2.65s-2.279-0.77-4.332-0.77h-9.689v6.84
		H456.744z"/>
	<path d="M476.466,20.918c0-0.417-0.162-0.684-0.484-0.798c-0.323-0.114-0.712-0.19-1.168-0.228v-0.684h10.26v0.684
		c-0.19,0.038-0.399,0.114-0.627,0.228c-0.229,0.114-0.342,0.38-0.342,0.798V34.77c0,1.444,0.521,2.479,1.567,3.106
		c1.045,0.627,2.423,0.94,4.133,0.94s3.087-0.313,4.132-0.94s1.567-1.662,1.567-3.106V20.918c0-0.417-0.113-0.684-0.342-0.798
		c-0.228-0.114-0.438-0.19-0.627-0.228v-0.684h10.26v0.684c-0.456,0.038-0.846,0.114-1.168,0.228
		c-0.323,0.114-0.484,0.38-0.484,0.798v12.54c0,1.521-0.229,2.955-0.685,4.304c-0.456,1.35-1.196,2.527-2.223,3.534
		s-2.395,1.786-4.104,2.337c-1.71,0.552-3.818,0.826-6.326,0.826c-2.509,0-4.617-0.274-6.327-0.826
		c-1.71-0.551-3.078-1.33-4.104-2.337c-1.025-1.007-1.767-2.185-2.223-3.534c-0.456-1.349-0.685-2.783-0.685-4.304V20.918z"/>
	<path d="M521.154,19.893c-0.57,0.038-1.018,0.114-1.34,0.228c-0.323,0.114-0.484,0.38-0.484,0.798v21.66
		c0,0.419,0.161,0.685,0.484,0.798c0.322,0.114,0.77,0.191,1.34,0.229v0.684h-11.286v-0.684c0.57-0.037,1.017-0.114,1.34-0.229
		c0.322-0.113,0.484-0.379,0.484-0.798v-21.66c0-0.417-0.162-0.684-0.484-0.798c-0.323-0.114-0.77-0.19-1.34-0.228v-0.684h11.286
		V19.893z"/>
	<path d="M527.024,20.918c0-0.417-0.152-0.684-0.456-0.798c-0.305-0.114-0.666-0.19-1.083-0.228v-0.684h10.659v0.684
		c-0.419,0.038-0.77,0.114-1.055,0.228c-0.285,0.114-0.428,0.38-0.428,0.798v17.557h15.618c0.228,0,0.456-0.086,0.684-0.257
		c0.229-0.171,0.342-0.561,0.342-1.168h0.685v8.492h-0.685c0-0.608-0.113-0.969-0.342-1.083c-0.228-0.113-0.456-0.171-0.684-0.171
		h-24.795v-0.684c0.417-0.037,0.778-0.114,1.083-0.229c0.304-0.113,0.456-0.379,0.456-0.798V20.918z"/>
	<path d="M555.924,20.918c0-0.417-0.143-0.684-0.428-0.798c-0.285-0.114-0.637-0.19-1.055-0.228v-0.684h17.101
		c2.128,0,3.933,0.342,5.415,1.026c1.481,0.684,2.707,1.596,3.677,2.736c0.969,1.14,1.671,2.471,2.108,3.99
		c0.437,1.521,0.655,3.116,0.655,4.788c0,1.673-0.219,3.269-0.655,4.788c-0.438,1.521-1.14,2.851-2.108,3.99
		c-0.97,1.14-2.195,2.052-3.677,2.736c-1.482,0.684-3.287,1.025-5.415,1.025h-17.101v-0.684c0.418-0.037,0.77-0.114,1.055-0.229
		c0.285-0.113,0.428-0.379,0.428-0.798V20.918z M567.666,38.817c2.964,0,5.092-0.522,6.384-1.567
		c1.291-1.045,1.938-2.879,1.938-5.501s-0.647-4.455-1.938-5.5c-1.292-1.044-3.42-1.567-6.384-1.567h-4.104v14.136H567.666z"/>
	<path d="M611.84,39.273c0.76,0,1.254-0.475,1.481-1.425h0.685v7.467h-0.57c-0.19-0.533-0.391-0.836-0.599-0.912
		c-0.209-0.076-0.541-0.114-0.997-0.114h-25.423v-0.684c0.418-0.037,0.789-0.114,1.112-0.229c0.322-0.113,0.484-0.379,0.484-0.798
		v-21.66c0-0.417-0.162-0.684-0.484-0.798c-0.323-0.114-0.694-0.19-1.112-0.228v-0.684h25.879c0.228,0,0.455-0.076,0.684-0.228
		c0.228-0.151,0.342-0.493,0.342-1.026h0.685v7.638h-0.685c0-0.57-0.114-0.941-0.342-1.112c-0.229-0.171-0.456-0.256-0.684-0.256
		h-16.645v4.617h10.716c0.229,0,0.456-0.086,0.685-0.257c0.228-0.171,0.342-0.522,0.342-1.054h0.684v7.41h-0.684
		c0-0.532-0.114-0.884-0.342-1.055c-0.229-0.171-0.456-0.257-0.685-0.257h-10.716v5.644H611.84z"/>
	<path d="M620.218,20.918c0-0.417-0.134-0.684-0.398-0.798c-0.267-0.114-0.552-0.19-0.855-0.228v-0.684h18.297
		c2.851,0,5.12,0.666,6.812,1.995c1.69,1.331,2.537,3.306,2.537,5.928c0,2.052-0.599,3.677-1.796,4.874s-2.707,2.138-4.531,2.821
		l5.073,7.638c0.189,0.305,0.465,0.57,0.826,0.799c0.36,0.228,0.75,0.342,1.168,0.342v0.684h-11.514v-0.684
		c0.266,0,0.561-0.048,0.884-0.143c0.322-0.095,0.484-0.294,0.484-0.599c0-0.189-0.199-0.664-0.599-1.425
		c-0.399-0.76-0.854-1.576-1.368-2.451c-0.513-0.874-1.007-1.71-1.481-2.508c-0.476-0.798-0.77-1.312-0.884-1.539H627.4v7.638
		c0,0.419,0.143,0.685,0.427,0.798c0.285,0.114,0.637,0.191,1.055,0.229v0.684h-9.804v-0.684c0.228-0.037,0.475-0.114,0.741-0.229
		c0.265-0.113,0.398-0.379,0.398-0.798V20.918z M635.494,30.152c1.216,0,2.175-0.256,2.878-0.769
		c0.703-0.513,1.055-1.283,1.055-2.309c0-0.874-0.295-1.605-0.883-2.195c-0.59-0.588-1.739-0.883-3.449-0.883H627.4v6.156H635.494z"
		/>
	<path d="M652.138,35.91c0,0.077-0.01,0.162-0.028,0.257c-0.02,0.095-0.029,0.219-0.029,0.37c0,0.381,0.361,0.741,1.083,1.083
		s1.644,0.655,2.765,0.94s2.337,0.514,3.648,0.685c1.311,0.171,2.536,0.256,3.677,0.256c0.342,0,0.807-0.019,1.396-0.057
		c0.588-0.037,1.168-0.143,1.738-0.313s1.055-0.418,1.453-0.741c0.399-0.322,0.599-0.77,0.599-1.339c0-0.76-0.456-1.302-1.368-1.625
		c-0.912-0.322-2.062-0.57-3.448-0.741c-1.388-0.171-2.889-0.351-4.503-0.541c-1.615-0.19-3.116-0.522-4.503-0.998
		c-1.388-0.475-2.537-1.158-3.448-2.052c-0.912-0.893-1.368-2.138-1.368-3.734c0-0.874,0.228-1.814,0.684-2.821
		c0.456-1.006,1.178-1.928,2.166-2.765c0.988-0.835,2.289-1.529,3.904-2.081c1.615-0.55,3.582-0.826,5.899-0.826
		c1.368,0,2.67,0.077,3.905,0.228c1.234,0.152,2.355,0.323,3.362,0.513c1.007,0.191,1.861,0.362,2.565,0.513
		c0.703,0.152,1.206,0.228,1.511,0.228c0.304,0,0.55-0.085,0.74-0.256c0.19-0.171,0.361-0.313,0.514-0.428l0.627,0.228l-3.42,7.182
		l-0.741-0.342c0-0.076,0.009-0.171,0.028-0.285c0.019-0.114,0.028-0.228,0.028-0.342c0-0.151-0.228-0.342-0.684-0.57
		s-1.055-0.456-1.796-0.684c-0.74-0.228-1.577-0.427-2.508-0.599c-0.932-0.171-1.891-0.256-2.878-0.256
		c-0.343,0-0.875,0.01-1.597,0.028c-0.722,0.02-1.444,0.114-2.166,0.285s-1.358,0.418-1.909,0.741
		c-0.552,0.323-0.826,0.808-0.826,1.453c0,0.684,0.456,1.168,1.367,1.454c0.912,0.285,2.062,0.513,3.449,0.684
		c1.387,0.171,2.887,0.362,4.503,0.57c1.614,0.209,3.115,0.561,4.503,1.055c1.387,0.494,2.536,1.207,3.448,2.138
		c0.912,0.931,1.368,2.232,1.368,3.904c0,1.103-0.248,2.157-0.741,3.163c-0.494,1.008-1.254,1.891-2.28,2.65
		c-1.025,0.761-2.328,1.34-3.904,1.738c-1.577,0.399-3.448,0.599-5.614,0.599c-1.368,0-2.756-0.085-4.161-0.256
		c-1.406-0.171-2.698-0.38-3.876-0.627s-2.157-0.475-2.936-0.685c-0.779-0.208-1.226-0.313-1.34-0.313
		c-0.266,0-0.504,0.086-0.712,0.257c-0.209,0.171-0.409,0.352-0.599,0.541l-0.627-0.171l2.337-7.638L652.138,35.91z"/>
</g>
</svg>
